<svg width="382" height="285" viewBox="0 0 382 285" fill="none" xmlns="http://www.w3.org/2000/svg">
<g clip-path="url(#clip0_0_1)">
<path d="M-0.999985 86.0001C-0.999985 86.0001 92.8349 90.9891 151.796 102.162C197.174 110.761 220.784 127.945 266.393 131.456C312.001 134.967 383 120.344 383 120.344" stroke="#FFC355" stroke-width="2"/>
<path d="M41.3012 84.1392C40.6185 84.1392 40.0086 84.0215 39.4717 83.7862C38.9381 83.5509 38.5155 83.2244 38.2039 82.8068C37.8957 82.3859 37.73 81.8987 37.7068 81.3452H39.2678C39.2877 81.6468 39.3888 81.9086 39.5711 82.1307C39.7567 82.3494 39.9987 82.5185 40.297 82.6378C40.5953 82.7571 40.9267 82.8168 41.2913 82.8168C41.6923 82.8168 42.047 82.7472 42.3552 82.608C42.6668 82.4687 42.9104 82.2749 43.086 82.0263C43.2617 81.7744 43.3495 81.4844 43.3495 81.1562C43.3495 80.8149 43.2617 80.5149 43.086 80.2564C42.9137 79.9946 42.6601 79.7891 42.3254 79.6399C41.9939 79.4908 41.5929 79.4162 41.1223 79.4162H40.2622V78.1634H41.1223C41.5001 78.1634 41.8315 78.0954 42.1166 77.9595C42.4049 77.8236 42.6303 77.6347 42.7927 77.3928C42.9551 77.1475 43.0363 76.8608 43.0363 76.5327C43.0363 76.2178 42.9651 75.9444 42.8225 75.7124C42.6833 75.477 42.4845 75.2931 42.2259 75.1605C41.9707 75.0279 41.6691 74.9616 41.3211 74.9616C40.9897 74.9616 40.6798 75.023 40.3914 75.1456C40.1064 75.2649 39.8744 75.4373 39.6954 75.6626C39.5164 75.8847 39.4203 76.1515 39.4071 76.4631H37.9205C37.9371 75.9129 38.0995 75.429 38.4078 75.0114C38.7193 74.5937 39.1303 74.2673 39.6407 74.032C40.1511 73.7966 40.7179 73.679 41.341 73.679C41.9939 73.679 42.5574 73.8066 43.0313 74.0618C43.5086 74.3137 43.8765 74.6501 44.135 75.071C44.3969 75.4919 44.5261 75.9527 44.5228 76.4531C44.5261 77.0232 44.367 77.5071 44.0455 77.9048C43.7274 78.3026 43.3031 78.5694 42.7728 78.7053V78.7848C43.449 78.8875 43.9726 79.156 44.3438 79.5902C44.7184 80.0244 44.904 80.563 44.9007 81.206C44.904 81.7661 44.7482 82.2682 44.4333 82.7124C44.1218 83.1565 43.6959 83.5062 43.1556 83.7614C42.6154 84.0133 41.9973 84.1392 41.3012 84.1392ZM50.3247 84.169C49.5392 84.1657 48.868 83.9586 48.3112 83.5476C47.7544 83.1366 47.3285 82.5384 47.0335 81.7528C46.7385 80.9673 46.591 80.0211 46.591 78.9141C46.591 77.8104 46.7385 76.8674 47.0335 76.0852C47.3318 75.303 47.7593 74.7064 48.3161 74.2955C48.8763 73.8845 49.5458 73.679 50.3247 73.679C51.1035 73.679 51.7714 73.8861 52.3282 74.3004C52.885 74.7114 53.3109 75.308 53.6059 76.0902C53.9042 76.8691 54.0534 77.8104 54.0534 78.9141C54.0534 80.0244 53.9059 80.9723 53.6109 81.7578C53.3159 82.54 52.89 83.1383 52.3332 83.5526C51.7764 83.9635 51.1069 84.169 50.3247 84.169ZM50.3247 82.8416C51.0141 82.8416 51.5526 82.5052 51.9404 81.8324C52.3315 81.1596 52.5271 80.1868 52.5271 78.9141C52.5271 78.0689 52.4376 77.3546 52.2586 76.7713C52.083 76.1847 51.8294 75.7405 51.498 75.4389C51.1698 75.134 50.7787 74.9815 50.3247 74.9815C49.6386 74.9815 49.1 75.3196 48.7089 75.9957C48.3178 76.6719 48.1206 77.6446 48.1173 78.9141C48.1173 79.7625 48.2051 80.4801 48.3808 81.0668C48.5598 81.6501 48.8133 82.0926 49.1414 82.3942C49.4696 82.6925 49.864 82.8416 50.3247 82.8416ZM58.0294 78.4219C57.5985 78.4219 57.2058 78.3175 56.8511 78.1087C56.4998 77.8965 56.2181 77.6132 56.006 77.2585C55.7971 76.9039 55.6927 76.5111 55.6927 76.0803C55.6927 75.6494 55.7971 75.2583 56.006 74.907C56.2181 74.5523 56.4998 74.2706 56.8511 74.0618C57.2058 73.8497 57.5985 73.7436 58.0294 73.7436C58.4603 73.7436 58.853 73.8497 59.2077 74.0618C59.5623 74.2706 59.844 74.5523 60.0528 74.907C60.265 75.2583 60.371 75.6494 60.371 76.0803C60.371 76.5111 60.265 76.9039 60.0528 77.2585C59.844 77.6132 59.5623 77.8965 59.2077 78.1087C58.853 78.3175 58.4603 78.4219 58.0294 78.4219ZM58.0294 77.2884C58.2548 77.2884 58.4586 77.2337 58.6409 77.1243C58.8232 77.0149 58.9674 76.8691 59.0734 76.6868C59.1828 76.5045 59.2375 76.3023 59.2375 76.0803C59.2375 75.8582 59.1828 75.656 59.0734 75.4737C58.9674 75.2914 58.8232 75.1473 58.6409 75.0412C58.4586 74.9318 58.2548 74.8771 58.0294 74.8771C57.8073 74.8771 57.6052 74.9318 57.4229 75.0412C57.2406 75.1473 57.0947 75.2914 56.9854 75.4737C56.8793 75.656 56.8263 75.8582 56.8263 76.0803C56.8263 76.3023 56.8793 76.5045 56.9854 76.6868C57.0947 76.8691 57.2406 77.0149 57.4229 77.1243C57.6052 77.2337 57.8073 77.2884 58.0294 77.2884Z" fill="white"/>
<path d="M133.044 95.9999V94.8862L136.489 91.3166C136.857 90.9288 137.16 90.5891 137.399 90.2975C137.641 90.0025 137.821 89.7224 137.941 89.4573C138.06 89.1921 138.12 88.9104 138.12 88.6121C138.12 88.274 138.04 87.9824 137.881 87.7371C137.722 87.4885 137.505 87.2979 137.23 87.1654C136.955 87.0295 136.645 86.9615 136.3 86.9615C135.935 86.9615 135.617 87.0361 135.345 87.1852C135.074 87.3344 134.865 87.5449 134.719 87.8166C134.573 88.0884 134.5 88.4066 134.5 88.7712H133.034C133.034 88.1514 133.176 87.6095 133.461 87.1455C133.746 86.6815 134.137 86.3218 134.635 86.0666C135.132 85.8081 135.697 85.6788 136.33 85.6788C136.97 85.6788 137.533 85.8065 138.02 86.0617C138.511 86.3136 138.894 86.6582 139.169 87.0957C139.444 87.5299 139.581 88.0205 139.581 88.5673C139.581 88.9452 139.51 89.3147 139.368 89.676C139.228 90.0373 138.985 90.44 138.637 90.8841C138.289 91.3249 137.805 91.8602 137.185 92.4899L135.162 94.6078V94.6824H139.745V95.9999H133.044ZM145.184 96.1391C144.73 96.1324 144.283 96.0496 143.842 95.8905C143.404 95.7314 143.007 95.4663 142.649 95.095C142.291 94.7238 142.004 94.225 141.789 93.5986C141.577 92.9722 141.47 92.19 141.47 91.252C141.47 90.3637 141.558 89.5749 141.734 88.8855C141.913 88.1961 142.17 87.6145 142.505 87.1405C142.839 86.6632 143.244 86.3003 143.718 86.0517C144.192 85.8031 144.724 85.6788 145.314 85.6788C145.92 85.6788 146.459 85.7982 146.929 86.0368C147.4 86.2754 147.781 86.6052 148.073 87.0261C148.368 87.4471 148.555 87.926 148.635 88.4629H147.118C147.015 88.0387 146.812 87.6923 146.507 87.4239C146.202 87.1554 145.804 87.0212 145.314 87.0212C144.568 87.0212 143.986 87.346 143.569 87.9956C143.154 88.6452 142.945 89.5484 142.942 90.7051H143.017C143.192 90.4168 143.408 90.1715 143.663 89.9693C143.921 89.7638 144.21 89.6064 144.528 89.497C144.85 89.3843 145.188 89.328 145.542 89.328C146.132 89.328 146.666 89.4722 147.143 89.7605C147.624 90.0456 148.006 90.44 148.292 90.9438C148.577 91.4475 148.719 92.0243 148.719 92.6739C148.719 93.3235 148.572 93.9118 148.277 94.4388C147.985 94.9658 147.574 95.3834 147.044 95.6916C146.513 95.9966 145.894 96.1457 145.184 96.1391ZM145.179 94.8465C145.57 94.8465 145.92 94.7503 146.228 94.5581C146.537 94.3659 146.78 94.1074 146.959 93.7825C147.138 93.4577 147.228 93.0948 147.228 92.6938C147.228 92.3027 147.14 91.9464 146.964 91.6249C146.792 91.3034 146.553 91.0482 146.248 90.8592C145.947 90.6703 145.602 90.5759 145.214 90.5759C144.919 90.5759 144.646 90.6322 144.394 90.7449C144.145 90.8576 143.926 91.0134 143.738 91.2122C143.549 91.4111 143.399 91.6398 143.29 91.8983C143.184 92.1535 143.131 92.4236 143.131 92.7087C143.131 93.0898 143.219 93.4428 143.394 93.7676C143.573 94.0924 143.817 94.3543 144.125 94.5531C144.437 94.7487 144.788 94.8465 145.179 94.8465ZM152.742 90.4217C152.311 90.4217 151.919 90.3173 151.564 90.1085C151.213 89.8964 150.931 89.613 150.719 89.2584C150.51 88.9038 150.406 88.511 150.406 88.0801C150.406 87.6493 150.51 87.2582 150.719 86.9068C150.931 86.5522 151.213 86.2705 151.564 86.0617C151.919 85.8495 152.311 85.7435 152.742 85.7435C153.173 85.7435 153.566 85.8495 153.921 86.0617C154.275 86.2705 154.557 86.5522 154.766 86.9068C154.978 87.2582 155.084 87.6493 155.084 88.0801C155.084 88.511 154.978 88.9038 154.766 89.2584C154.557 89.613 154.275 89.8964 153.921 90.1085C153.566 90.3173 153.173 90.4217 152.742 90.4217ZM152.742 89.2882C152.968 89.2882 153.172 89.2335 153.354 89.1242C153.536 89.0148 153.68 88.869 153.786 88.6867C153.896 88.5044 153.95 88.3022 153.95 88.0801C153.95 87.8581 153.896 87.6559 153.786 87.4736C153.68 87.2913 153.536 87.1471 153.354 87.0411C153.172 86.9317 152.968 86.877 152.742 86.877C152.52 86.877 152.318 86.9317 152.136 87.0411C151.954 87.1471 151.808 87.2913 151.698 87.4736C151.592 87.6559 151.539 87.8581 151.539 88.0801C151.539 88.3022 151.592 88.5044 151.698 88.6867C151.808 88.869 151.954 89.0148 152.136 89.1242C152.318 89.2335 152.52 89.2882 152.742 89.2882Z" fill="white"/>
<path d="M228.201 115V113.886L231.647 110.317C232.015 109.929 232.318 109.589 232.556 109.298C232.798 109.003 232.979 108.723 233.098 108.457C233.218 108.192 233.277 107.91 233.277 107.612C233.277 107.274 233.198 106.982 233.039 106.737C232.88 106.489 232.662 106.298 232.387 106.165C232.112 106.03 231.802 105.962 231.458 105.962C231.093 105.962 230.775 106.036 230.503 106.185C230.231 106.335 230.023 106.545 229.877 106.817C229.731 107.089 229.658 107.407 229.658 107.771H228.191C228.191 107.151 228.334 106.61 228.619 106.146C228.904 105.682 229.295 105.322 229.792 105.067C230.289 104.808 230.854 104.679 231.488 104.679C232.127 104.679 232.691 104.807 233.178 105.062C233.668 105.314 234.051 105.658 234.326 106.096C234.601 106.53 234.739 107.021 234.739 107.567C234.739 107.945 234.668 108.315 234.525 108.676C234.386 109.037 234.142 109.44 233.794 109.884C233.446 110.325 232.962 110.86 232.343 111.49L230.319 113.608V113.683H234.903V115H228.201ZM236.787 115V113.886L240.233 110.317C240.6 109.929 240.904 109.589 241.142 109.298C241.384 109.003 241.565 108.723 241.684 108.457C241.804 108.192 241.863 107.91 241.863 107.612C241.863 107.274 241.784 106.982 241.625 106.737C241.465 106.489 241.248 106.298 240.973 106.165C240.698 106.03 240.388 105.962 240.044 105.962C239.679 105.962 239.361 106.036 239.089 106.185C238.817 106.335 238.608 106.545 238.463 106.817C238.317 107.089 238.244 107.407 238.244 107.771H236.777C236.777 107.151 236.92 106.61 237.205 106.146C237.49 105.682 237.881 105.322 238.378 105.067C238.875 104.808 239.44 104.679 240.073 104.679C240.713 104.679 241.277 104.807 241.764 105.062C242.254 105.314 242.637 105.658 242.912 106.096C243.187 106.53 243.325 107.021 243.325 107.567C243.325 107.945 243.254 108.315 243.111 108.676C242.972 109.037 242.728 109.44 242.38 109.884C242.032 110.325 241.548 110.86 240.929 111.49L238.905 113.608V113.683H243.489V115H236.787ZM247.586 109.422C247.155 109.422 246.762 109.317 246.407 109.109C246.056 108.897 245.774 108.613 245.562 108.259C245.353 107.904 245.249 107.511 245.249 107.08C245.249 106.649 245.353 106.258 245.562 105.907C245.774 105.552 246.056 105.271 246.407 105.062C246.762 104.85 247.155 104.744 247.586 104.744C248.016 104.744 248.409 104.85 248.764 105.062C249.118 105.271 249.4 105.552 249.609 105.907C249.821 106.258 249.927 106.649 249.927 107.08C249.927 107.511 249.821 107.904 249.609 108.259C249.4 108.613 249.118 108.897 248.764 109.109C248.409 109.317 248.016 109.422 247.586 109.422ZM247.586 108.288C247.811 108.288 248.015 108.234 248.197 108.124C248.379 108.015 248.524 107.869 248.63 107.687C248.739 107.504 248.794 107.302 248.794 107.08C248.794 106.858 248.739 106.656 248.63 106.474C248.524 106.291 248.379 106.147 248.197 106.041C248.015 105.932 247.811 105.877 247.586 105.877C247.363 105.877 247.161 105.932 246.979 106.041C246.797 106.147 246.651 106.291 246.541 106.474C246.435 106.656 246.382 106.858 246.382 107.08C246.382 107.302 246.435 107.504 246.541 107.687C246.651 107.869 246.797 108.015 246.979 108.124C247.161 108.234 247.363 108.288 247.586 108.288Z" fill="white"/>
<path d="M327.891 107.818V118H326.35V109.359H326.29L323.854 110.95V109.479L326.395 107.818H327.891ZM334.2 118.139C333.746 118.133 333.299 118.05 332.858 117.891C332.42 117.732 332.023 117.467 331.665 117.095C331.307 116.724 331.02 116.225 330.804 115.599C330.592 114.972 330.486 114.19 330.486 113.252C330.486 112.364 330.574 111.575 330.75 110.886C330.929 110.196 331.186 109.615 331.52 109.141C331.855 108.663 332.259 108.301 332.733 108.052C333.207 107.803 333.739 107.679 334.329 107.679C334.936 107.679 335.474 107.798 335.945 108.037C336.416 108.276 336.797 108.605 337.089 109.026C337.384 109.447 337.571 109.926 337.65 110.463H336.134C336.031 110.039 335.827 109.693 335.523 109.424C335.218 109.156 334.82 109.021 334.329 109.021C333.584 109.021 333.002 109.346 332.584 109.996C332.17 110.645 331.961 111.549 331.958 112.705H332.032C332.208 112.417 332.424 112.172 332.679 111.97C332.937 111.764 333.226 111.607 333.544 111.497C333.865 111.385 334.203 111.328 334.558 111.328C335.148 111.328 335.682 111.472 336.159 111.761C336.639 112.046 337.022 112.44 337.307 112.944C337.592 113.448 337.735 114.025 337.735 114.674C337.735 115.324 337.587 115.912 337.292 116.439C337.001 116.966 336.59 117.384 336.059 117.692C335.529 117.997 334.909 118.146 334.2 118.139ZM334.195 116.847C334.586 116.847 334.936 116.751 335.244 116.558C335.552 116.366 335.796 116.108 335.975 115.783C336.154 115.458 336.243 115.095 336.243 114.694C336.243 114.303 336.156 113.947 335.98 113.625C335.808 113.304 335.569 113.048 335.264 112.859C334.962 112.671 334.618 112.576 334.23 112.576C333.935 112.576 333.661 112.632 333.41 112.745C333.161 112.858 332.942 113.014 332.753 113.212C332.564 113.411 332.415 113.64 332.306 113.899C332.2 114.154 332.147 114.424 332.147 114.709C332.147 115.09 332.235 115.443 332.41 115.768C332.589 116.093 332.833 116.355 333.141 116.553C333.453 116.749 333.804 116.847 334.195 116.847ZM341.758 112.422C341.327 112.422 340.935 112.318 340.58 112.109C340.229 111.897 339.947 111.613 339.735 111.259C339.526 110.904 339.421 110.511 339.421 110.08C339.421 109.65 339.526 109.258 339.735 108.907C339.947 108.552 340.229 108.271 340.58 108.062C340.935 107.85 341.327 107.744 341.758 107.744C342.189 107.744 342.582 107.85 342.936 108.062C343.291 108.271 343.573 108.552 343.782 108.907C343.994 109.258 344.1 109.65 344.1 110.08C344.1 110.511 343.994 110.904 343.782 111.259C343.573 111.613 343.291 111.897 342.936 112.109C342.582 112.318 342.189 112.422 341.758 112.422ZM341.758 111.288C341.984 111.288 342.187 111.234 342.37 111.124C342.552 111.015 342.696 110.869 342.802 110.687C342.912 110.505 342.966 110.302 342.966 110.08C342.966 109.858 342.912 109.656 342.802 109.474C342.696 109.292 342.552 109.147 342.37 109.041C342.187 108.932 341.984 108.877 341.758 108.877C341.536 108.877 341.334 108.932 341.152 109.041C340.969 109.147 340.823 109.292 340.714 109.474C340.608 109.656 340.555 109.858 340.555 110.08C340.555 110.302 340.608 110.505 340.714 110.687C340.823 110.869 340.969 111.015 341.152 111.124C341.334 111.234 341.536 111.288 341.758 111.288Z" fill="white"/>
<ellipse cx="46.4998" cy="89.5001" rx="2.5" ry="2.5" fill="white"/>
<line x1="46.5001" y1="93.0001" x2="46.5001" y2="123" stroke="#FFC355" stroke-dasharray="2 2"/>
<g clip-path="url(#clip1_0_1)">
<path d="M231.396 175.464C231.585 175.344 231.789 175.245 232.003 175.17C232.001 175.113 232 175.057 232 175C232 173.015 233.446 171.367 235.343 171.054C234.621 170.714 233.944 170.245 233.348 169.646C231.786 168.093 231.105 165.986 231.297 163.957C231.353 163.369 230.516 162.737 229.983 163.113C229.664 163.34 229.366 163.596 229.082 163.879C226.306 166.646 226.306 171.143 229.082 173.909C229.765 174.598 230.554 175.116 231.396 175.464Z" fill="white"/>
<path d="M238.06 168.208L237.533 166.462L239.242 165.17L237.087 165.11L236.371 163.111L235.655 165.11L233.5 165.17L235.209 166.462L234.594 168.5L236.371 167.294L237.906 168.336C237.957 168.293 238.008 168.25 238.06 168.208Z" fill="white"/>
<path d="M244.716 164.443L243.608 165.276L244.006 166.595L242.858 165.816L241.709 166.595L242.108 165.276L241 164.443L242.392 164.41L242.858 163.111L243.324 164.41L244.716 164.443Z" fill="white"/>
<path d="M247 182H244.009L244.868 180.496C245.249 179.83 244.768 179 244 179H243V175C243 173.975 241.64 173.614 241.132 174.504L236.848 182H234C232.343 182 231 180.657 231 179C231 177.693 231.836 176.58 233.003 176.17C233.001 176.113 233 176.057 233 176C233 173.791 234.791 172 237 172C237.069 172 237.137 172.002 237.205 172.005C237.857 169.694 239.98 168 242.5 168C245.537 168 248 170.463 248 173.5C248 173.709 247.988 173.915 247.966 174.117C249.708 174.549 251 176.124 251 178C251 180.209 249.209 182 247 182Z" fill="white"/>
<path d="M238 182H240V187L244 180H242V175L238 182Z" fill="white"/>
</g>
<path d="M335.009 178H338C340.209 178 342 176.209 342 174C342 172.124 340.708 170.549 338.965 170.117C338.988 169.915 339 169.709 339 169.5C339 166.463 336.537 164 333.5 164C330.98 164 328.856 165.694 328.205 168.005C328.137 168.002 328.069 168 328 168C325.791 168 324 169.791 324 172C324 172.057 324.001 172.113 324.003 172.17C322.836 172.58 322 173.693 322 175C322 176.657 323.343 178 325 178H327.848L332.131 170.504C332.64 169.614 334 169.975 334 171V175H335C335.767 175 336.249 175.83 335.868 176.496L335.009 178Z" fill="white"/>
<path d="M329 178L333 171V176H335L331 183V178H329Z" fill="white"/>
<path d="M32.3316 151.182V157H31.6271V151.92H31.593L30.1725 152.863V152.148L31.6271 151.182H32.3316ZM36.0504 151.182V157H35.3458V151.92H35.3118L33.8913 152.863V152.148L35.3458 151.182H36.0504ZM37.8799 157.045C37.7398 157.045 37.6195 156.995 37.5191 156.895C37.4188 156.794 37.3686 156.674 37.3686 156.534C37.3686 156.394 37.4188 156.274 37.5191 156.173C37.6195 156.073 37.7398 156.023 37.8799 156.023C38.0201 156.023 38.1404 156.073 38.2407 156.173C38.3411 156.274 38.3913 156.394 38.3913 156.534C38.3913 156.627 38.3676 156.712 38.3203 156.79C38.2748 156.867 38.2133 156.93 38.1356 156.977C38.0599 157.023 37.9746 157.045 37.8799 157.045ZM39.6477 157L42.25 151.852V151.807H39.25V151.182H42.9772V151.841L40.3863 157H39.6477ZM44.6725 155.409L44.6612 154.579H44.7975L46.7066 152.636H47.5362L45.5021 154.693H45.4453L44.6725 155.409ZM44.0475 157V151.182H44.718V157H44.0475ZM46.8203 157L45.1157 154.841L45.593 154.375L47.6725 157H46.8203ZM48.3991 157V152.636H49.0468V153.318H49.1037C49.1946 153.085 49.3413 152.904 49.544 152.775C49.7466 152.645 49.99 152.579 50.2741 152.579C50.562 152.579 50.8016 152.645 50.9929 152.775C51.186 152.904 51.3366 153.085 51.4446 153.318H51.49C51.6018 153.093 51.7694 152.914 51.9929 152.781C52.2163 152.647 52.4843 152.579 52.7968 152.579C53.187 152.579 53.5061 152.702 53.7542 152.946C54.0023 153.188 54.1264 153.566 54.1264 154.079V157H53.4559V154.079C53.4559 153.757 53.3679 153.527 53.1917 153.389C53.0156 153.251 52.8082 153.182 52.5696 153.182C52.2627 153.182 52.0251 153.274 51.8565 153.46C51.6879 153.644 51.6037 153.877 51.6037 154.159V157H50.9218V154.011C50.9218 153.763 50.8413 153.563 50.6804 153.412C50.5194 153.258 50.312 153.182 50.0582 153.182C49.884 153.182 49.7211 153.228 49.5696 153.321C49.4199 153.414 49.2987 153.542 49.2059 153.707C49.115 153.87 49.0696 154.059 49.0696 154.273V157H48.3991ZM57.4091 150.909L55.5341 157.875H54.9204L56.7954 150.909H57.4091ZM58.8743 154.375V157H58.2038V151.182H58.8743V153.318H58.9311C59.0333 153.093 59.1868 152.914 59.3913 152.781C59.5977 152.647 59.8724 152.579 60.2152 152.579C60.5125 152.579 60.7729 152.639 60.9964 152.758C61.2199 152.876 61.3932 153.057 61.5163 153.301C61.6413 153.543 61.7038 153.852 61.7038 154.227V157H61.0333V154.273C61.0333 153.926 60.9434 153.658 60.7635 153.469C60.5854 153.277 60.3383 153.182 60.022 153.182C59.8023 153.182 59.6053 153.228 59.4311 153.321C59.2587 153.414 59.1224 153.549 59.022 153.727C58.9235 153.905 58.8743 154.121 58.8743 154.375Z" fill="white"/>
<path d="M42.7441 162.182V168H42.0623L38.8918 163.432H38.835V168H38.1304V162.182H38.8123L41.9941 166.761H42.0509V162.182H42.7441ZM45.8357 168.091C45.4418 168.091 45.0961 167.997 44.7988 167.81C44.5033 167.622 44.2723 167.36 44.1056 167.023C43.9408 166.686 43.8584 166.292 43.8584 165.841C43.8584 165.386 43.9408 164.989 44.1056 164.65C44.2723 164.311 44.5033 164.048 44.7988 163.861C45.0961 163.673 45.4418 163.579 45.8357 163.579C46.2296 163.579 46.5743 163.673 46.8698 163.861C47.1671 164.048 47.3982 164.311 47.563 164.65C47.7296 164.989 47.813 165.386 47.813 165.841C47.813 166.292 47.7296 166.686 47.563 167.023C47.3982 167.36 47.1671 167.622 46.8698 167.81C46.5743 167.997 46.2296 168.091 45.8357 168.091ZM45.8357 167.489C46.1349 167.489 46.3812 167.412 46.5743 167.258C46.7675 167.105 46.9105 166.903 47.0033 166.653C47.0961 166.403 47.1425 166.132 47.1425 165.841C47.1425 165.549 47.0961 165.277 47.0033 165.025C46.9105 164.774 46.7675 164.57 46.5743 164.415C46.3812 164.259 46.1349 164.182 45.8357 164.182C45.5365 164.182 45.2902 164.259 45.0971 164.415C44.9039 164.57 44.7609 164.774 44.6681 165.025C44.5753 165.277 44.5289 165.549 44.5289 165.841C44.5289 166.132 44.5753 166.403 44.6681 166.653C44.7609 166.903 44.9039 167.105 45.0971 167.258C45.2902 167.412 45.5365 167.489 45.8357 167.489ZM49.6766 168L48.3471 163.636H49.0516L49.9948 166.977H50.0402L50.9721 163.636H51.688L52.6084 166.966H52.6539L53.5971 163.636H54.3016L52.9721 168H52.313L51.3584 164.648H51.2902L50.3357 168H49.6766Z" fill="white"/>
<path d="M129.08 160.102C129.318 160.104 129.557 160.15 129.796 160.239C130.034 160.328 130.252 160.475 130.449 160.682C130.646 160.886 130.804 161.166 130.924 161.52C131.043 161.874 131.103 162.318 131.103 162.852C131.103 163.369 131.053 163.829 130.955 164.23C130.858 164.63 130.718 164.967 130.534 165.241C130.353 165.516 130.131 165.724 129.87 165.866C129.61 166.008 129.317 166.079 128.989 166.079C128.663 166.079 128.372 166.015 128.117 165.886C127.863 165.756 127.655 165.575 127.492 165.344C127.331 165.111 127.228 164.841 127.182 164.534H127.875C127.938 164.801 128.062 165.022 128.247 165.196C128.435 165.368 128.682 165.454 128.989 165.454C129.438 165.454 129.792 165.258 130.051 164.866C130.313 164.474 130.443 163.92 130.443 163.204H130.398C130.292 163.364 130.166 163.501 130.02 163.616C129.874 163.732 129.712 163.821 129.534 163.883C129.356 163.946 129.167 163.977 128.966 163.977C128.633 163.977 128.327 163.895 128.049 163.73C127.772 163.563 127.55 163.335 127.384 163.045C127.219 162.754 127.137 162.42 127.137 162.045C127.137 161.689 127.216 161.364 127.375 161.068C127.536 160.771 127.762 160.534 128.051 160.358C128.343 160.182 128.686 160.097 129.08 160.102ZM129.08 160.727C128.841 160.727 128.626 160.787 128.435 160.906C128.246 161.024 128.095 161.183 127.983 161.383C127.873 161.582 127.818 161.803 127.818 162.045C127.818 162.288 127.871 162.508 127.978 162.707C128.086 162.904 128.232 163.061 128.418 163.179C128.605 163.294 128.818 163.352 129.057 163.352C129.237 163.352 129.405 163.317 129.56 163.247C129.715 163.175 129.851 163.078 129.966 162.954C130.084 162.829 130.175 162.688 130.242 162.531C130.308 162.372 130.341 162.206 130.341 162.034C130.341 161.807 130.286 161.594 130.176 161.395C130.068 161.196 129.919 161.035 129.728 160.912C129.538 160.789 129.322 160.727 129.08 160.727ZM132.517 166.045C132.376 166.045 132.256 165.995 132.156 165.895C132.055 165.794 132.005 165.674 132.005 165.534C132.005 165.394 132.055 165.274 132.156 165.173C132.256 165.073 132.376 165.023 132.517 165.023C132.657 165.023 132.777 165.073 132.877 165.173C132.978 165.274 133.028 165.394 133.028 165.534C133.028 165.627 133.004 165.712 132.957 165.79C132.911 165.867 132.85 165.93 132.772 165.977C132.697 166.023 132.611 166.045 132.517 166.045ZM135.967 166.079C135.592 166.079 135.258 166.015 134.964 165.886C134.672 165.758 134.44 165.579 134.268 165.349C134.098 165.118 134.005 164.85 133.99 164.545H134.706C134.721 164.733 134.785 164.895 134.899 165.031C135.012 165.166 135.161 165.27 135.345 165.344C135.528 165.418 135.732 165.454 135.956 165.454C136.206 165.454 136.427 165.411 136.62 165.324C136.813 165.237 136.965 165.115 137.075 164.96C137.185 164.805 137.24 164.625 137.24 164.42C137.24 164.206 137.187 164.018 137.081 163.855C136.974 163.69 136.819 163.561 136.615 163.469C136.41 163.376 136.16 163.329 135.865 163.329H135.399V162.704H135.865C136.096 162.704 136.298 162.663 136.473 162.579C136.649 162.496 136.786 162.379 136.885 162.227C136.985 162.076 137.035 161.898 137.035 161.693C137.035 161.496 136.992 161.325 136.904 161.179C136.817 161.033 136.694 160.919 136.535 160.838C136.378 160.757 136.192 160.716 135.978 160.716C135.777 160.716 135.588 160.753 135.41 160.827C135.234 160.899 135.09 161.004 134.978 161.142C134.867 161.278 134.806 161.443 134.796 161.636H134.115C134.126 161.331 134.218 161.064 134.39 160.835C134.563 160.604 134.788 160.424 135.066 160.295C135.347 160.167 135.654 160.102 135.99 160.102C136.349 160.102 136.658 160.175 136.916 160.321C137.173 160.465 137.371 160.655 137.51 160.892C137.648 161.129 137.717 161.384 137.717 161.659C137.717 161.987 137.631 162.266 137.458 162.497C137.288 162.728 137.056 162.888 136.762 162.977V163.023C137.13 163.083 137.417 163.24 137.623 163.491C137.83 163.741 137.933 164.051 137.933 164.42C137.933 164.737 137.847 165.021 137.674 165.273C137.504 165.523 137.271 165.72 136.975 165.864C136.68 166.008 136.344 166.079 135.967 166.079ZM139.731 164.409L139.72 163.579H139.856L141.765 161.636H142.595L140.561 163.693H140.504L139.731 164.409ZM139.106 166V160.182H139.777V166H139.106ZM141.879 166L140.174 163.841L140.652 163.375L142.731 166H141.879ZM143.458 166V161.636H144.105V162.318H144.162C144.253 162.085 144.4 161.904 144.603 161.776C144.805 161.645 145.049 161.579 145.333 161.579C145.621 161.579 145.86 161.645 146.051 161.776C146.245 161.904 146.395 162.085 146.503 162.318H146.549C146.66 162.093 146.828 161.914 147.051 161.781C147.275 161.647 147.543 161.579 147.855 161.579C148.246 161.579 148.565 161.702 148.813 161.946C149.061 162.188 149.185 162.566 149.185 163.079V166H148.514V163.079C148.514 162.758 148.426 162.527 148.25 162.389C148.074 162.251 147.867 162.182 147.628 162.182C147.321 162.182 147.084 162.275 146.915 162.46C146.746 162.644 146.662 162.877 146.662 163.159V166H145.98V163.011C145.98 162.763 145.9 162.563 145.739 162.412C145.578 162.258 145.371 162.182 145.117 162.182C144.943 162.182 144.78 162.228 144.628 162.321C144.478 162.414 144.357 162.543 144.264 162.707C144.174 162.87 144.128 163.059 144.128 163.273V166H143.458ZM152.468 159.909L150.593 166.875H149.979L151.854 159.909H152.468ZM153.933 163.375V166H153.262V160.182H153.933V162.318H153.99C154.092 162.093 154.245 161.914 154.45 161.781C154.656 161.647 154.931 161.579 155.274 161.579C155.571 161.579 155.831 161.639 156.055 161.758C156.278 161.876 156.452 162.057 156.575 162.301C156.7 162.543 156.762 162.852 156.762 163.227V166H156.092V163.273C156.092 162.926 156.002 162.658 155.822 162.469C155.644 162.277 155.397 162.182 155.081 162.182C154.861 162.182 154.664 162.228 154.49 162.321C154.317 162.414 154.181 162.549 154.081 162.727C153.982 162.905 153.933 163.121 153.933 163.375Z" fill="white"/>
<path d="M131.657 177V176.489L133.577 174.386C133.803 174.14 133.988 173.926 134.134 173.744C134.28 173.56 134.388 173.388 134.458 173.227C134.53 173.064 134.566 172.894 134.566 172.716C134.566 172.511 134.517 172.334 134.418 172.185C134.322 172.035 134.189 171.919 134.021 171.838C133.852 171.757 133.663 171.716 133.452 171.716C133.229 171.716 133.034 171.762 132.867 171.855C132.702 171.946 132.575 172.074 132.484 172.239C132.395 172.403 132.35 172.596 132.35 172.818H131.68C131.68 172.477 131.758 172.178 131.916 171.92C132.073 171.663 132.287 171.462 132.558 171.318C132.83 171.174 133.136 171.102 133.475 171.102C133.816 171.102 134.118 171.174 134.381 171.318C134.645 171.462 134.851 171.656 135.001 171.9C135.15 172.145 135.225 172.417 135.225 172.716C135.225 172.93 135.186 173.139 135.109 173.344C135.033 173.546 134.9 173.773 134.711 174.023C134.523 174.271 134.263 174.574 133.93 174.932L132.623 176.329V176.375H135.327V177H131.657ZM136.501 177V176.489L138.421 174.386C138.647 174.14 138.832 173.926 138.978 173.744C139.124 173.56 139.232 173.388 139.302 173.227C139.374 173.064 139.41 172.894 139.41 172.716C139.41 172.511 139.361 172.334 139.262 172.185C139.166 172.035 139.033 171.919 138.864 171.838C138.696 171.757 138.506 171.716 138.296 171.716C138.073 171.716 137.878 171.762 137.711 171.855C137.546 171.946 137.418 172.074 137.327 172.239C137.238 172.403 137.194 172.596 137.194 172.818H136.523C136.523 172.477 136.602 172.178 136.759 171.92C136.916 171.663 137.131 171.462 137.401 171.318C137.674 171.174 137.98 171.102 138.319 171.102C138.66 171.102 138.962 171.174 139.225 171.318C139.488 171.462 139.695 171.656 139.845 171.9C139.994 172.145 140.069 172.417 140.069 172.716C140.069 172.93 140.03 173.139 139.952 173.344C139.877 173.546 139.744 173.773 139.555 174.023C139.367 174.271 139.107 174.574 138.773 174.932L137.467 176.329V176.375H140.171V177H136.501ZM141.845 176.256C141.704 176.256 141.584 176.205 141.484 176.105C141.383 176.005 141.333 175.884 141.333 175.744C141.333 175.604 141.383 175.484 141.484 175.383C141.584 175.283 141.704 175.233 141.845 175.233C141.985 175.233 142.105 175.283 142.205 175.383C142.306 175.484 142.356 175.604 142.356 175.744C142.356 175.837 142.332 175.922 142.285 176C142.239 176.078 142.178 176.14 142.1 176.187C142.024 176.233 141.939 176.256 141.845 176.256ZM141.845 173.312C141.704 173.312 141.584 173.262 141.484 173.162C141.383 173.061 141.333 172.941 141.333 172.801C141.333 172.661 141.383 172.541 141.484 172.44C141.584 172.34 141.704 172.29 141.845 172.29C141.985 172.29 142.105 172.34 142.205 172.44C142.306 172.541 142.356 172.661 142.356 172.801C142.356 172.894 142.332 172.979 142.285 173.057C142.239 173.134 142.178 173.197 142.1 173.244C142.024 173.29 141.939 173.312 141.845 173.312ZM145.445 177.079C145.017 177.079 144.653 176.963 144.352 176.73C144.05 176.495 143.82 176.155 143.661 175.71C143.502 175.263 143.423 174.723 143.423 174.091C143.423 173.462 143.502 172.925 143.661 172.48C143.822 172.033 144.053 171.692 144.354 171.457C144.657 171.221 145.021 171.102 145.445 171.102C145.87 171.102 146.232 171.221 146.533 171.457C146.836 171.692 147.068 172.033 147.227 172.48C147.388 172.925 147.468 173.462 147.468 174.091C147.468 174.723 147.389 175.263 147.229 175.71C147.07 176.155 146.84 176.495 146.539 176.73C146.238 176.963 145.873 177.079 145.445 177.079ZM145.445 176.454C145.87 176.454 146.199 176.25 146.434 175.841C146.669 175.432 146.786 174.848 146.786 174.091C146.786 173.587 146.732 173.158 146.624 172.804C146.518 172.45 146.365 172.18 146.164 171.994C145.965 171.809 145.726 171.716 145.445 171.716C145.025 171.716 144.696 171.923 144.46 172.338C144.223 172.751 144.104 173.335 144.104 174.091C144.104 174.595 144.157 175.023 144.264 175.375C144.37 175.727 144.522 175.995 144.721 176.179C144.922 176.363 145.163 176.454 145.445 176.454ZM150.445 177.079C150.017 177.079 149.653 176.963 149.352 176.73C149.05 176.495 148.82 176.155 148.661 175.71C148.502 175.263 148.423 174.723 148.423 174.091C148.423 173.462 148.502 172.925 148.661 172.48C148.822 172.033 149.053 171.692 149.354 171.457C149.657 171.221 150.021 171.102 150.445 171.102C150.87 171.102 151.232 171.221 151.533 171.457C151.836 171.692 152.068 172.033 152.227 172.48C152.388 172.925 152.468 173.462 152.468 174.091C152.468 174.723 152.389 175.263 152.229 175.71C152.07 176.155 151.84 176.495 151.539 176.73C151.238 176.963 150.873 177.079 150.445 177.079ZM150.445 176.454C150.87 176.454 151.199 176.25 151.434 175.841C151.669 175.432 151.786 174.848 151.786 174.091C151.786 173.587 151.732 173.158 151.624 172.804C151.518 172.45 151.365 172.18 151.164 171.994C150.965 171.809 150.726 171.716 150.445 171.716C150.025 171.716 149.696 171.923 149.46 172.338C149.223 172.751 149.104 173.335 149.104 174.091C149.104 174.595 149.157 175.023 149.264 175.375C149.37 175.727 149.522 175.995 149.721 176.179C149.922 176.363 150.163 176.454 150.445 176.454Z" fill="white"/>
<path d="M227.925 189.182V195H227.22V189.92H227.186L225.765 190.864V190.148L227.22 189.182H227.925ZM229.598 195V194.489L231.518 192.386C231.744 192.14 231.929 191.926 232.075 191.744C232.221 191.56 232.329 191.388 232.399 191.227C232.471 191.064 232.507 190.894 232.507 190.716C232.507 190.511 232.458 190.334 232.359 190.185C232.263 190.035 232.13 189.919 231.961 189.838C231.793 189.757 231.604 189.716 231.393 189.716C231.17 189.716 230.975 189.762 230.808 189.855C230.643 189.946 230.515 190.074 230.425 190.239C230.336 190.403 230.291 190.596 230.291 190.818H229.621C229.621 190.477 229.699 190.178 229.856 189.92C230.014 189.663 230.228 189.462 230.498 189.318C230.771 189.174 231.077 189.102 231.416 189.102C231.757 189.102 232.059 189.174 232.322 189.318C232.586 189.462 232.792 189.656 232.942 189.9C233.091 190.145 233.166 190.417 233.166 190.716C233.166 190.93 233.127 191.139 233.05 191.344C232.974 191.546 232.841 191.773 232.652 192.023C232.464 192.271 232.204 192.574 231.871 192.932L230.564 194.329V194.375H233.268V195H229.598ZM235.078 193.409L235.067 192.579H235.203L237.112 190.636H237.942L235.908 192.693H235.851L235.078 193.409ZM234.453 195V189.182H235.123V195H234.453ZM237.226 195L235.521 192.841L235.998 192.375L238.078 195H237.226ZM238.805 195V190.636H239.452V191.318H239.509C239.6 191.085 239.747 190.904 239.949 190.775C240.152 190.645 240.395 190.579 240.68 190.579C240.967 190.579 241.207 190.645 241.398 190.775C241.591 190.904 241.742 191.085 241.85 191.318H241.895C242.007 191.093 242.175 190.914 242.398 190.781C242.622 190.647 242.89 190.579 243.202 190.579C243.592 190.579 243.912 190.702 244.16 190.946C244.408 191.188 244.532 191.566 244.532 192.079V195H243.861V192.079C243.861 191.757 243.773 191.527 243.597 191.389C243.421 191.251 243.214 191.182 242.975 191.182C242.668 191.182 242.43 191.274 242.262 191.46C242.093 191.644 242.009 191.877 242.009 192.159V195H241.327V192.011C241.327 191.763 241.247 191.563 241.086 191.412C240.925 191.258 240.717 191.182 240.464 191.182C240.289 191.182 240.127 191.228 239.975 191.321C239.825 191.414 239.704 191.542 239.611 191.707C239.52 191.87 239.475 192.059 239.475 192.273V195H238.805ZM247.814 188.909L245.939 195.875H245.326L247.201 188.909H247.814ZM249.28 192.375V195H248.609V189.182H249.28V191.318H249.336C249.439 191.093 249.592 190.914 249.797 190.781C250.003 190.647 250.278 190.579 250.621 190.579C250.918 190.579 251.178 190.639 251.402 190.758C251.625 190.876 251.799 191.057 251.922 191.301C252.047 191.543 252.109 191.852 252.109 192.227V195H251.439V192.273C251.439 191.926 251.349 191.658 251.169 191.469C250.991 191.277 250.744 191.182 250.427 191.182C250.208 191.182 250.011 191.228 249.836 191.321C249.664 191.414 249.528 191.549 249.427 191.727C249.329 191.905 249.28 192.121 249.28 192.375Z" fill="white"/>
<path d="M230.398 206.079C229.97 206.079 229.605 205.963 229.304 205.73C229.003 205.495 228.773 205.155 228.614 204.71C228.455 204.263 228.375 203.723 228.375 203.091C228.375 202.462 228.455 201.925 228.614 201.48C228.775 201.033 229.006 200.692 229.307 200.457C229.61 200.221 229.974 200.102 230.398 200.102C230.822 200.102 231.185 200.221 231.486 200.457C231.789 200.692 232.02 201.033 232.179 201.48C232.34 201.925 232.421 202.462 232.421 203.091C232.421 203.723 232.341 204.263 232.182 204.71C232.023 205.155 231.793 205.495 231.492 205.73C231.191 205.963 230.826 206.079 230.398 206.079ZM230.398 205.454C230.822 205.454 231.152 205.25 231.387 204.841C231.622 204.432 231.739 203.848 231.739 203.091C231.739 202.587 231.685 202.158 231.577 201.804C231.471 201.45 231.318 201.18 231.117 200.994C230.918 200.809 230.678 200.716 230.398 200.716C229.978 200.716 229.649 200.923 229.412 201.338C229.176 201.751 229.057 202.335 229.057 203.091C229.057 203.595 229.11 204.023 229.216 204.375C229.322 204.727 229.475 204.995 229.674 205.179C229.874 205.363 230.116 205.454 230.398 205.454ZM235.398 206.079C234.97 206.079 234.605 205.963 234.304 205.73C234.003 205.495 233.773 205.155 233.614 204.71C233.455 204.263 233.375 203.723 233.375 203.091C233.375 202.462 233.455 201.925 233.614 201.48C233.775 201.033 234.006 200.692 234.307 200.457C234.61 200.221 234.974 200.102 235.398 200.102C235.822 200.102 236.185 200.221 236.486 200.457C236.789 200.692 237.02 201.033 237.179 201.48C237.34 201.925 237.421 202.462 237.421 203.091C237.421 203.723 237.341 204.263 237.182 204.71C237.023 205.155 236.793 205.495 236.492 205.73C236.191 205.963 235.826 206.079 235.398 206.079ZM235.398 205.454C235.822 205.454 236.152 205.25 236.387 204.841C236.622 204.432 236.739 203.848 236.739 203.091C236.739 202.587 236.685 202.158 236.577 201.804C236.471 201.45 236.318 201.18 236.117 200.994C235.918 200.809 235.678 200.716 235.398 200.716C234.978 200.716 234.649 200.923 234.412 201.338C234.176 201.751 234.057 202.335 234.057 203.091C234.057 203.595 234.11 204.023 234.216 204.375C234.322 204.727 234.475 204.995 234.674 205.179C234.874 205.363 235.116 205.454 235.398 205.454ZM239 205.256C238.86 205.256 238.74 205.205 238.64 205.105C238.539 205.005 238.489 204.884 238.489 204.744C238.489 204.604 238.539 204.484 238.64 204.383C238.74 204.283 238.86 204.233 239 204.233C239.14 204.233 239.261 204.283 239.361 204.383C239.461 204.484 239.512 204.604 239.512 204.744C239.512 204.837 239.488 204.922 239.441 205C239.395 205.078 239.334 205.14 239.256 205.187C239.18 205.233 239.095 205.256 239 205.256ZM239 202.312C238.86 202.312 238.74 202.262 238.64 202.162C238.539 202.061 238.489 201.941 238.489 201.801C238.489 201.661 238.539 201.541 238.64 201.44C238.74 201.34 238.86 201.29 239 201.29C239.14 201.29 239.261 201.34 239.361 201.44C239.461 201.541 239.512 201.661 239.512 201.801C239.512 201.894 239.488 201.979 239.441 202.057C239.395 202.134 239.334 202.197 239.256 202.244C239.18 202.29 239.095 202.312 239 202.312ZM242.601 206.079C242.173 206.079 241.809 205.963 241.507 205.73C241.206 205.495 240.976 205.155 240.817 204.71C240.658 204.263 240.578 203.723 240.578 203.091C240.578 202.462 240.658 201.925 240.817 201.48C240.978 201.033 241.209 200.692 241.51 200.457C241.813 200.221 242.177 200.102 242.601 200.102C243.025 200.102 243.388 200.221 243.689 200.457C243.992 200.692 244.223 201.033 244.382 201.48C244.543 201.925 244.624 202.462 244.624 203.091C244.624 203.723 244.544 204.263 244.385 204.71C244.226 205.155 243.996 205.495 243.695 205.73C243.394 205.963 243.029 206.079 242.601 206.079ZM242.601 205.454C243.025 205.454 243.355 205.25 243.59 204.841C243.825 204.432 243.942 203.848 243.942 203.091C243.942 202.587 243.888 202.158 243.78 201.804C243.674 201.45 243.521 201.18 243.32 200.994C243.121 200.809 242.881 200.716 242.601 200.716C242.181 200.716 241.852 200.923 241.615 201.338C241.379 201.751 241.26 202.335 241.26 203.091C241.26 203.595 241.313 204.023 241.419 204.375C241.525 204.727 241.678 204.995 241.877 205.179C242.077 205.363 242.319 205.454 242.601 205.454ZM247.601 206.079C247.173 206.079 246.809 205.963 246.507 205.73C246.206 205.495 245.976 205.155 245.817 204.71C245.658 204.263 245.578 203.723 245.578 203.091C245.578 202.462 245.658 201.925 245.817 201.48C245.978 201.033 246.209 200.692 246.51 200.457C246.813 200.221 247.177 200.102 247.601 200.102C248.025 200.102 248.388 200.221 248.689 200.457C248.992 200.692 249.223 201.033 249.382 201.48C249.543 201.925 249.624 202.462 249.624 203.091C249.624 203.723 249.544 204.263 249.385 204.71C249.226 205.155 248.996 205.495 248.695 205.73C248.394 205.963 248.029 206.079 247.601 206.079ZM247.601 205.454C248.025 205.454 248.355 205.25 248.59 204.841C248.825 204.432 248.942 203.848 248.942 203.091C248.942 202.587 248.888 202.158 248.78 201.804C248.674 201.45 248.521 201.18 248.32 200.994C248.121 200.809 247.881 200.716 247.601 200.716C247.181 200.716 246.852 200.923 246.615 201.338C246.379 201.751 246.26 202.335 246.26 203.091C246.26 203.595 246.313 204.023 246.419 204.375C246.525 204.727 246.678 204.995 246.877 205.179C247.077 205.363 247.319 205.454 247.601 205.454Z" fill="white"/>
<path d="M320.913 187.182V193H320.209V187.921H320.175L318.754 188.864V188.148L320.209 187.182H320.913ZM324.405 193.08C324.072 193.08 323.771 193.013 323.504 192.881C323.237 192.748 323.023 192.566 322.862 192.335C322.701 192.104 322.613 191.841 322.598 191.546H323.28C323.306 191.809 323.426 192.027 323.638 192.199C323.852 192.369 324.108 192.455 324.405 192.455C324.644 192.455 324.856 192.399 325.041 192.287C325.229 192.175 325.376 192.022 325.482 191.827C325.59 191.63 325.644 191.407 325.644 191.159C325.644 190.905 325.588 190.679 325.476 190.48C325.366 190.279 325.215 190.121 325.021 190.006C324.828 189.89 324.608 189.832 324.359 189.83C324.181 189.828 323.999 189.855 323.811 189.912C323.624 189.967 323.469 190.038 323.348 190.125L322.689 190.046L323.041 187.182H326.064V187.807H323.632L323.428 189.523H323.462C323.581 189.428 323.731 189.35 323.911 189.287C324.09 189.225 324.278 189.193 324.473 189.193C324.829 189.193 325.146 189.278 325.425 189.449C325.705 189.618 325.925 189.849 326.084 190.142C326.245 190.436 326.325 190.771 326.325 191.148C326.325 191.519 326.242 191.85 326.075 192.142C325.911 192.432 325.683 192.661 325.394 192.83C325.104 192.996 324.774 193.08 324.405 193.08ZM328.09 191.409L328.079 190.58H328.215L330.124 188.636H330.954L328.92 190.693H328.863L328.09 191.409ZM327.465 193V187.182H328.136V193H327.465ZM330.238 193L328.533 190.841L329.011 190.375L331.09 193H330.238ZM331.817 193V188.636H332.465V189.318H332.521C332.612 189.085 332.759 188.904 332.962 188.776C333.164 188.645 333.408 188.58 333.692 188.58C333.98 188.58 334.219 188.645 334.411 188.776C334.604 188.904 334.754 189.085 334.862 189.318H334.908C335.019 189.093 335.187 188.914 335.411 188.781C335.634 188.647 335.902 188.58 336.215 188.58C336.605 188.58 336.924 188.702 337.172 188.946C337.42 189.189 337.544 189.566 337.544 190.08V193H336.874V190.08C336.874 189.758 336.786 189.528 336.609 189.389C336.433 189.251 336.226 189.182 335.987 189.182C335.68 189.182 335.443 189.275 335.274 189.46C335.106 189.644 335.021 189.877 335.021 190.159V193H334.34V190.011C334.34 189.763 334.259 189.564 334.098 189.412C333.937 189.259 333.73 189.182 333.476 189.182C333.302 189.182 333.139 189.228 332.987 189.321C332.838 189.414 332.716 189.543 332.624 189.707C332.533 189.87 332.487 190.059 332.487 190.273V193H331.817ZM340.827 186.909L338.952 193.875H338.338L340.213 186.909H340.827ZM342.292 190.375V193H341.622V187.182H342.292V189.318H342.349C342.451 189.093 342.604 188.914 342.809 188.781C343.015 188.647 343.29 188.58 343.633 188.58C343.93 188.58 344.191 188.639 344.414 188.759C344.638 188.876 344.811 189.057 344.934 189.301C345.059 189.544 345.122 189.852 345.122 190.227V193H344.451V190.273C344.451 189.926 344.361 189.658 344.181 189.469C344.003 189.278 343.756 189.182 343.44 189.182C343.22 189.182 343.023 189.228 342.849 189.321C342.676 189.414 342.54 189.549 342.44 189.727C342.341 189.905 342.292 190.121 342.292 190.375Z" fill="white"/>
<path d="M324.079 204V203.489L325.999 201.386C326.225 201.14 326.41 200.926 326.556 200.744C326.702 200.561 326.81 200.388 326.88 200.227C326.952 200.064 326.988 199.894 326.988 199.716C326.988 199.511 326.939 199.334 326.84 199.185C326.744 199.035 326.611 198.92 326.443 198.838C326.274 198.757 326.085 198.716 325.874 198.716C325.651 198.716 325.456 198.762 325.289 198.855C325.124 198.946 324.997 199.074 324.906 199.239C324.817 199.403 324.772 199.597 324.772 199.818H324.102C324.102 199.477 324.18 199.178 324.338 198.921C324.495 198.663 324.709 198.462 324.98 198.318C325.252 198.174 325.558 198.102 325.897 198.102C326.238 198.102 326.54 198.174 326.803 198.318C327.067 198.462 327.273 198.656 327.423 198.901C327.572 199.145 327.647 199.417 327.647 199.716C327.647 199.93 327.608 200.139 327.531 200.344C327.455 200.546 327.322 200.773 327.133 201.023C326.945 201.271 326.685 201.574 326.352 201.932L325.045 203.33V203.375H327.749V204H324.079ZM329.423 203.256C329.283 203.256 329.162 203.206 329.062 203.105C328.962 203.005 328.911 202.885 328.911 202.744C328.911 202.604 328.962 202.484 329.062 202.384C329.162 202.283 329.283 202.233 329.423 202.233C329.563 202.233 329.683 202.283 329.784 202.384C329.884 202.484 329.934 202.604 329.934 202.744C329.934 202.837 329.91 202.922 329.863 203C329.818 203.078 329.756 203.14 329.678 203.188C329.603 203.233 329.517 203.256 329.423 203.256ZM329.423 200.313C329.283 200.313 329.162 200.262 329.062 200.162C328.962 200.062 328.911 199.941 328.911 199.801C328.911 199.661 328.962 199.541 329.062 199.44C329.162 199.34 329.283 199.29 329.423 199.29C329.563 199.29 329.683 199.34 329.784 199.44C329.884 199.541 329.934 199.661 329.934 199.801C329.934 199.894 329.91 199.979 329.863 200.057C329.818 200.135 329.756 200.197 329.678 200.244C329.603 200.29 329.517 200.313 329.423 200.313ZM333.024 204.08C332.596 204.08 332.231 203.963 331.93 203.73C331.629 203.495 331.399 203.155 331.239 202.71C331.08 202.263 331.001 201.724 331.001 201.091C331.001 200.462 331.08 199.925 331.239 199.48C331.4 199.033 331.632 198.692 331.933 198.457C332.236 198.221 332.599 198.102 333.024 198.102C333.448 198.102 333.811 198.221 334.112 198.457C334.415 198.692 334.646 199.033 334.805 199.48C334.966 199.925 335.046 200.462 335.046 201.091C335.046 201.724 334.967 202.263 334.808 202.71C334.649 203.155 334.418 203.495 334.117 203.73C333.816 203.963 333.452 204.08 333.024 204.08ZM333.024 203.455C333.448 203.455 333.777 203.25 334.012 202.841C334.247 202.432 334.364 201.849 334.364 201.091C334.364 200.587 334.311 200.158 334.203 199.804C334.096 199.45 333.943 199.18 333.742 198.994C333.543 198.809 333.304 198.716 333.024 198.716C332.603 198.716 332.275 198.923 332.038 199.338C331.801 199.751 331.683 200.335 331.683 201.091C331.683 201.595 331.736 202.023 331.842 202.375C331.948 202.727 332.1 202.995 332.299 203.179C332.5 203.363 332.741 203.455 333.024 203.455ZM338.024 204.08C337.596 204.08 337.231 203.963 336.93 203.73C336.629 203.495 336.399 203.155 336.239 202.71C336.08 202.263 336.001 201.724 336.001 201.091C336.001 200.462 336.08 199.925 336.239 199.48C336.4 199.033 336.632 198.692 336.933 198.457C337.236 198.221 337.599 198.102 338.024 198.102C338.448 198.102 338.811 198.221 339.112 198.457C339.415 198.692 339.646 199.033 339.805 199.48C339.966 199.925 340.046 200.462 340.046 201.091C340.046 201.724 339.967 202.263 339.808 202.71C339.649 203.155 339.418 203.495 339.117 203.73C338.816 203.963 338.452 204.08 338.024 204.08ZM338.024 203.455C338.448 203.455 338.777 203.25 339.012 202.841C339.247 202.432 339.364 201.849 339.364 201.091C339.364 200.587 339.311 200.158 339.203 199.804C339.096 199.45 338.943 199.18 338.742 198.994C338.543 198.809 338.304 198.716 338.024 198.716C337.603 198.716 337.275 198.923 337.038 199.338C336.801 199.751 336.683 200.335 336.683 201.091C336.683 201.595 336.736 202.023 336.842 202.375C336.948 202.727 337.1 202.995 337.299 203.179C337.5 203.363 337.741 203.455 338.024 203.455Z" fill="white"/>
<g clip-path="url(#clip2_0_1)">
<path d="M39.0039 139.17C38.7892 139.245 38.5857 139.345 38.3965 139.464C37.5545 139.116 36.7657 138.598 36.0822 137.909C33.3064 135.143 33.3064 130.646 36.0822 127.88C36.3661 127.596 36.6643 127.34 36.9838 127.113C37.5162 126.738 38.3539 127.369 38.2971 127.958C38.1054 129.986 38.7869 132.093 40.3487 133.646C40.9448 134.245 41.6212 134.714 42.3436 135.054C40.4469 135.367 39.0004 137.015 39.0004 139C39.0004 139.057 39.0015 139.113 39.0039 139.17Z" fill="white"/>
<path d="M44.5336 130.462L45.0604 132.208C45.0084 132.25 44.9573 132.293 44.9069 132.336L43.3716 131.294L41.5948 132.5L42.2096 130.462L40.5003 129.17L42.6555 129.11L43.3716 127.111L44.0877 129.11L46.2428 129.17L44.5336 130.462Z" fill="white"/>
<path d="M50.6081 129.276L51.7161 128.444L50.3244 128.41L49.8582 127.111L49.3921 128.41L48.0003 128.444L49.1083 129.276L48.7097 130.595L49.8582 129.816L51.0067 130.595L50.6081 129.276Z" fill="white"/>
<path d="M41.0004 146H54.0004C56.2095 146 58.0004 144.209 58.0004 142C58.0004 140.124 56.7087 138.55 54.9661 138.118C54.9887 137.915 55.0004 137.709 55.0004 137.5C55.0004 134.463 52.5379 132 49.5004 132C46.9809 132 44.8571 133.694 44.2059 136.005C44.1378 136.002 44.0693 136 44.0004 136C41.7912 136 40.0004 137.791 40.0004 140C40.0004 140.057 40.0015 140.113 40.0039 140.17C38.8369 140.58 38.0004 141.693 38.0004 143C38.0004 144.657 39.3435 146 41.0004 146Z" fill="white"/>
</g>
<path d="M147.75 138.09L145.22 140.03L146.13 143.09L143.5 141.28L140.87 143.09L141.78 140.03L139.25 138.09L142.44 138L143.5 135L144.56 138L147.75 138.09ZM151.25 145L149.61 146.25L150.2 148.23L148.5 147.06L146.8 148.23L147.39 146.25L145.75 145L147.81 144.95L148.5 143L149.19 144.95L151.25 145ZM148.97 149.95C149.8 149.87 150.69 151.05 150.16 151.8C149.84 152.25 149.5 152.67 149.08 153.07C145.17 157 138.84 157 134.94 153.07C131.03 149.17 131.03 142.83 134.94 138.93C135.34 138.53 135.76 138.17 136.21 137.85C136.96 137.32 138.14 138.21 138.06 139.04C137.79 141.9 138.75 144.87 140.95 147.06C143.14 149.26 146.1 150.22 148.97 149.95Z" fill="white"/>
</g>
<defs>
<clipPath id="clip0_0_1">
<rect width="382" height="285" fill="white"/>
</clipPath>
<clipPath id="clip1_0_1">
<rect width="24" height="24" fill="white" transform="translate(227 163)"/>
</clipPath>
<clipPath id="clip2_0_1">
<rect width="24" height="24" fill="white" transform="translate(34.0004 125)"/>
</clipPath>
</defs>
</svg>
