<svg width="884" height="262" viewBox="0 0 884 262" fill="none" xmlns="http://www.w3.org/2000/svg">
<g clip-path="url(#clip0_0_1)">
<path d="M-1.02344 88.0262C-1.02344 88.0262 95.0223 93.1327 155.372 104.569C201.82 113.371 225.986 130.959 272.669 134.553C319.352 138.146 345.203 123.504 392.024 123.18C450.314 122.776 482.232 136.837 540.5 138.5C608.146 140.431 645.888 125.609 713.5 128.5C779.107 131.305 821.18 136.538 885 152" stroke="#FFC355" stroke-width="2.04712"/>
<path d="M38.9401 85.6492V84.5093L42.4666 80.8556C42.8431 80.4587 43.1535 80.111 43.3978 79.8125C43.6455 79.5105 43.8303 79.2239 43.9525 78.9525C44.0746 78.6811 44.1357 78.3927 44.1357 78.0874C44.1357 77.7413 44.0542 77.4428 43.8914 77.1918C43.7286 76.9373 43.5064 76.7423 43.2248 76.6066C42.9432 76.4675 42.626 76.3979 42.2732 76.3979C41.9 76.3979 41.5743 76.4743 41.2962 76.6269C41.018 76.7796 40.8043 76.995 40.655 77.2732C40.5057 77.5514 40.4311 77.877 40.4311 78.2502H38.9299C38.9299 77.6158 39.0758 77.0612 39.3675 76.5862C39.6593 76.1113 40.0596 75.7432 40.5685 75.482C41.0773 75.2173 41.6558 75.085 42.3037 75.085C42.9585 75.085 43.5352 75.2156 44.0339 75.4769C44.536 75.7347 44.9278 76.0875 45.2094 76.5353C45.491 76.9797 45.6318 77.4818 45.6318 78.0416C45.6318 78.4283 45.5588 78.8066 45.4129 79.1764C45.2705 79.5461 45.0211 79.9583 44.6649 80.4129C44.3087 80.8641 43.8134 81.412 43.179 82.0566L41.1079 84.2244V84.3007H45.7997V85.6492H38.9401ZM51.3667 85.7917C50.902 85.7849 50.444 85.7001 49.9928 85.5373C49.545 85.3744 49.1379 85.103 48.7715 84.7231C48.4051 84.3431 48.1117 83.8325 47.8911 83.1914C47.674 82.5502 47.5655 81.7496 47.5655 80.7895C47.5655 79.8803 47.6554 79.0729 47.8352 78.3673C48.0184 77.6616 48.2813 77.0662 48.6239 76.5811C48.9666 76.0926 49.3804 75.7211 49.8656 75.4667C50.3507 75.2123 50.8952 75.085 51.499 75.085C52.1199 75.085 52.6712 75.2072 53.1529 75.4514C53.6346 75.6957 54.0248 76.0332 54.3233 76.4641C54.6252 76.8949 54.8169 77.3851 54.8983 77.9347H53.3463C53.2411 77.5005 53.0324 77.146 52.7203 76.8712C52.4082 76.5964 52.0011 76.459 51.499 76.459C50.7357 76.459 50.1404 76.7915 49.7129 77.4564C49.2888 78.1213 49.0751 79.0458 49.0717 80.2297H49.1481C49.3279 79.9346 49.5484 79.6835 49.8096 79.4766C50.0742 79.2663 50.3694 79.1051 50.695 78.9932C51.0241 78.8778 51.3701 78.8202 51.7331 78.8202C52.337 78.8202 52.8832 78.9677 53.3717 79.2629C53.8636 79.5546 54.2554 79.9583 54.5472 80.474C54.8389 80.9896 54.9848 81.5799 54.9848 82.2449C54.9848 82.9098 54.8339 83.512 54.5319 84.0514C54.2334 84.5908 53.8127 85.0182 53.2699 85.3337C52.7271 85.6458 52.0927 85.7985 51.3667 85.7917ZM51.3617 84.4686C51.762 84.4686 52.1199 84.3703 52.4354 84.1735C52.7509 83.9767 53.0002 83.7121 53.1834 83.3797C53.3666 83.0472 53.4582 82.6757 53.4582 82.2652C53.4582 81.8649 53.3683 81.5002 53.1885 81.1711C53.0121 80.8421 52.7678 80.5809 52.4557 80.3875C52.147 80.1941 51.7942 80.0974 51.3973 80.0974C51.0953 80.0974 50.8155 80.1551 50.5576 80.2704C50.3032 80.3858 50.0793 80.5452 49.8859 80.7488C49.6926 80.9523 49.5399 81.1864 49.4279 81.451C49.3194 81.7122 49.2651 81.9887 49.2651 82.2805C49.2651 82.6706 49.355 83.0319 49.5348 83.3644C49.718 83.6969 49.9673 83.9649 50.2828 84.1684C50.6017 84.3686 50.9613 84.4686 51.3617 84.4686ZM59.1029 79.9397C58.6619 79.9397 58.2598 79.8328 57.8968 79.6191C57.5372 79.402 57.2489 79.1119 57.0318 78.7489C56.818 78.3859 56.7112 77.9839 56.7112 77.5429C56.7112 77.1019 56.818 76.7016 57.0318 76.3419C57.2489 75.979 57.5372 75.6906 57.8968 75.4769C58.2598 75.2597 58.6619 75.1512 59.1029 75.1512C59.5439 75.1512 59.9459 75.2597 60.3089 75.4769C60.6719 75.6906 60.9603 75.979 61.174 76.3419C61.3911 76.7016 61.4997 77.1019 61.4997 77.5429C61.4997 77.9839 61.3911 78.3859 61.174 78.7489C60.9603 79.1119 60.6719 79.402 60.3089 79.6191C59.9459 79.8328 59.5439 79.9397 59.1029 79.9397ZM59.1029 78.7794C59.3336 78.7794 59.5422 78.7235 59.7288 78.6115C59.9154 78.4996 60.0629 78.3503 60.1715 78.1637C60.2835 77.9771 60.3394 77.7702 60.3394 77.5429C60.3394 77.3156 60.2835 77.1087 60.1715 76.9221C60.0629 76.7355 59.9154 76.5879 59.7288 76.4793C59.5422 76.3674 59.3336 76.3114 59.1029 76.3114C58.8756 76.3114 58.6686 76.3674 58.4821 76.4793C58.2955 76.5879 58.1462 76.7355 58.0342 76.9221C57.9257 77.1087 57.8714 77.3156 57.8714 77.5429C57.8714 77.7702 57.9257 77.9771 58.0342 78.1637C58.1462 78.3503 58.2955 78.4996 58.4821 78.6115C58.6686 78.7235 58.8756 78.7794 59.1029 78.7794Z" fill="white"/>
<path d="M136.179 97.9319V96.7921L139.705 93.1384C140.082 92.7414 140.392 92.3937 140.636 92.0952C140.884 91.7932 141.069 91.5066 141.191 91.2352C141.313 90.9638 141.374 90.6754 141.374 90.3701C141.374 90.0241 141.293 89.7255 141.13 89.4745C140.967 89.22 140.745 89.025 140.463 88.8893C140.182 88.7502 139.864 88.6806 139.512 88.6806C139.138 88.6806 138.813 88.757 138.535 88.9096C138.256 89.0623 138.043 89.2777 137.893 89.5559C137.744 89.8341 137.67 90.1598 137.67 90.5329H136.168C136.168 89.8985 136.314 89.3439 136.606 88.8689C136.898 88.394 137.298 88.0259 137.807 87.7647C138.316 87.5001 138.894 87.3677 139.542 87.3677C140.197 87.3677 140.774 87.4984 141.272 87.7596C141.774 88.0174 142.166 88.3702 142.448 88.818C142.729 89.2625 142.87 89.7645 142.87 90.3243C142.87 90.711 142.797 91.0893 142.651 91.4591C142.509 91.8289 142.26 92.241 141.903 92.6956C141.547 93.1468 141.052 93.6947 140.417 94.3393L138.346 96.5071V96.5834H143.038V97.9319H136.179ZM148.605 98.0744C148.14 98.0676 147.682 97.9828 147.231 97.82C146.783 97.6571 146.376 97.3857 146.01 97.0058C145.644 96.6258 145.35 96.1153 145.13 95.4741C144.912 94.8329 144.804 94.0323 144.804 93.0722C144.804 92.163 144.894 91.3556 145.074 90.65C145.257 89.9443 145.52 89.349 145.862 88.8638C146.205 88.3753 146.619 88.0038 147.104 87.7494C147.589 87.495 148.134 87.3677 148.738 87.3677C149.358 87.3677 149.91 87.4899 150.391 87.7341C150.873 87.9784 151.263 88.3159 151.562 88.7468C151.864 89.1776 152.055 89.6679 152.137 90.2174H150.585C150.48 89.7832 150.271 89.4287 149.959 89.1539C149.647 88.8791 149.24 88.7417 148.738 88.7417C147.974 88.7417 147.379 89.0742 146.951 89.7391C146.527 90.404 146.314 91.3285 146.31 92.5124H146.387C146.566 92.2173 146.787 91.9663 147.048 91.7593C147.313 91.549 147.608 91.3878 147.933 91.2759C148.263 91.1605 148.609 91.1029 148.972 91.1029C149.575 91.1029 150.122 91.2504 150.61 91.5456C151.102 91.8373 151.494 92.2411 151.786 92.7567C152.077 93.2724 152.223 93.8627 152.223 94.5276C152.223 95.1925 152.072 95.7947 151.77 96.3341C151.472 96.8735 151.051 97.3009 150.508 97.6164C149.966 97.9285 149.331 98.0812 148.605 98.0744ZM148.6 96.7514C149 96.7514 149.358 96.653 149.674 96.4562C149.989 96.2594 150.239 95.9948 150.422 95.6624C150.605 95.3299 150.697 94.9584 150.697 94.5479C150.697 94.1476 150.607 93.7829 150.427 93.4539C150.251 93.1248 150.006 92.8636 149.694 92.6702C149.385 92.4768 149.033 92.3801 148.636 92.3801C148.334 92.3801 148.054 92.4378 147.796 92.5532C147.542 92.6685 147.318 92.8279 147.124 93.0315C146.931 93.235 146.778 93.4691 146.666 93.7337C146.558 93.995 146.504 94.2715 146.504 94.5632C146.504 94.9533 146.593 95.3146 146.773 95.6471C146.956 95.9796 147.206 96.2476 147.521 96.4511C147.84 96.6513 148.2 96.7514 148.6 96.7514ZM156.341 92.2224C155.9 92.2224 155.498 92.1155 155.135 91.9018C154.776 91.6847 154.487 91.3946 154.27 91.0316C154.057 90.6686 153.95 90.2666 153.95 89.8256C153.95 89.3846 154.057 88.9843 154.27 88.6247C154.487 88.2617 154.776 87.9733 155.135 87.7596C155.498 87.5425 155.9 87.4339 156.341 87.4339C156.782 87.4339 157.184 87.5425 157.547 87.7596C157.91 87.9733 158.199 88.2617 158.412 88.6247C158.63 88.9843 158.738 89.3846 158.738 89.8256C158.738 90.2666 158.63 90.6686 158.412 91.0316C158.199 91.3946 157.91 91.6847 157.547 91.9018C157.184 92.1155 156.782 92.2224 156.341 92.2224ZM156.341 91.0622C156.572 91.0622 156.781 91.0062 156.967 90.8942C157.154 90.7823 157.301 90.633 157.41 90.4464C157.522 90.2598 157.578 90.0529 157.578 89.8256C157.578 89.5983 157.522 89.3914 157.41 89.2048C157.301 89.0182 157.154 88.8706 156.967 88.7621C156.781 88.6501 156.572 88.5941 156.341 88.5941C156.114 88.5941 155.907 88.6501 155.721 88.7621C155.534 88.8706 155.385 89.0182 155.273 89.2048C155.164 89.3914 155.11 89.5983 155.11 89.8256C155.11 90.0529 155.164 90.2598 155.273 90.4464C155.385 90.633 155.534 90.7823 155.721 90.8942C155.907 91.0062 156.114 91.0622 156.341 91.0622Z" fill="white"/>
<path d="M233.578 117.38V116.24L237.104 112.586C237.481 112.189 237.791 111.841 238.035 111.543C238.283 111.241 238.468 110.954 238.59 110.683C238.712 110.411 238.773 110.123 238.773 109.818C238.773 109.472 238.692 109.173 238.529 108.922C238.366 108.668 238.144 108.473 237.862 108.337C237.581 108.198 237.264 108.128 236.911 108.128C236.538 108.128 236.212 108.205 235.934 108.357C235.655 108.51 235.442 108.725 235.292 109.004C235.143 109.282 235.069 109.607 235.069 109.981H233.567C233.567 109.346 233.713 108.792 234.005 108.317C234.297 107.842 234.697 107.474 235.206 107.212C235.715 106.948 236.293 106.815 236.941 106.815C237.596 106.815 238.173 106.946 238.671 107.207C239.173 107.465 239.565 107.818 239.847 108.266C240.128 108.71 240.269 109.212 240.269 109.772C240.269 110.159 240.196 110.537 240.05 110.907C239.908 111.277 239.659 111.689 239.302 112.143C238.946 112.594 238.451 113.142 237.816 113.787L235.745 115.955V116.031H240.437V117.38H233.578ZM242.366 117.38V116.24L245.892 112.586C246.269 112.189 246.579 111.841 246.824 111.543C247.071 111.241 247.256 110.954 247.378 110.683C247.5 110.411 247.561 110.123 247.561 109.818C247.561 109.472 247.48 109.173 247.317 108.922C247.154 108.668 246.932 108.473 246.651 108.337C246.369 108.198 246.052 108.128 245.699 108.128C245.326 108.128 245 108.205 244.722 108.357C244.444 108.51 244.23 108.725 244.081 109.004C243.931 109.282 243.857 109.607 243.857 109.981H242.356C242.356 109.346 242.501 108.792 242.793 108.317C243.085 107.842 243.485 107.474 243.994 107.212C244.503 106.948 245.081 106.815 245.729 106.815C246.384 106.815 246.961 106.946 247.46 107.207C247.962 107.465 248.354 107.818 248.635 108.266C248.917 108.71 249.057 109.212 249.057 109.772C249.057 110.159 248.985 110.537 248.839 110.907C248.696 111.277 248.447 111.689 248.091 112.143C247.734 112.594 247.239 113.142 246.605 113.787L244.534 115.955V116.031H249.225V117.38H242.366ZM253.419 111.67C252.977 111.67 252.575 111.563 252.212 111.349C251.853 111.132 251.565 110.842 251.347 110.479C251.134 110.116 251.027 109.714 251.027 109.273C251.027 108.832 251.134 108.432 251.347 108.072C251.565 107.709 251.853 107.421 252.212 107.207C252.575 106.99 252.977 106.882 253.419 106.882C253.86 106.882 254.262 106.99 254.625 107.207C254.988 107.421 255.276 107.709 255.49 108.072C255.707 108.432 255.815 108.832 255.815 109.273C255.815 109.714 255.707 110.116 255.49 110.479C255.276 110.842 254.988 111.132 254.625 111.349C254.262 111.563 253.86 111.67 253.419 111.67ZM253.419 110.51C253.649 110.51 253.858 110.454 254.044 110.342C254.231 110.23 254.379 110.081 254.487 109.894C254.599 109.707 254.655 109.501 254.655 109.273C254.655 109.046 254.599 108.839 254.487 108.652C254.379 108.466 254.231 108.318 254.044 108.21C253.858 108.098 253.649 108.042 253.419 108.042C253.191 108.042 252.984 108.098 252.798 108.21C252.611 108.318 252.462 108.466 252.35 108.652C252.241 108.839 252.187 109.046 252.187 109.273C252.187 109.501 252.241 109.707 252.35 109.894C252.462 110.081 252.611 110.23 252.798 110.342C252.984 110.454 253.191 110.51 253.419 110.51Z" fill="white"/>
<path d="M335.616 110.029V120.45H334.039V111.606H333.978L331.484 113.234V111.728L334.085 110.029H335.616ZM342.074 120.593C341.609 120.586 341.151 120.501 340.7 120.338C340.252 120.175 339.845 119.904 339.479 119.524C339.112 119.144 338.819 118.634 338.598 117.992C338.381 117.351 338.273 116.551 338.273 115.591C338.273 114.681 338.363 113.874 338.542 113.168C338.726 112.463 338.989 111.867 339.331 111.382C339.674 110.894 340.088 110.522 340.573 110.268C341.058 110.013 341.602 109.886 342.206 109.886C342.827 109.886 343.378 110.008 343.86 110.252C344.342 110.497 344.732 110.834 345.031 111.265C345.332 111.696 345.524 112.186 345.606 112.736H344.054C343.948 112.302 343.74 111.947 343.428 111.672C343.115 111.397 342.708 111.26 342.206 111.26C341.443 111.26 340.848 111.592 340.42 112.257C339.996 112.922 339.782 113.847 339.779 115.031H339.855C340.035 114.736 340.256 114.485 340.517 114.278C340.781 114.067 341.077 113.906 341.402 113.794C341.731 113.679 342.077 113.621 342.44 113.621C343.044 113.621 343.59 113.769 344.079 114.064C344.571 114.356 344.963 114.759 345.254 115.275C345.546 115.791 345.692 116.381 345.692 117.046C345.692 117.711 345.541 118.313 345.239 118.852C344.941 119.392 344.52 119.819 343.977 120.135C343.434 120.447 342.8 120.6 342.074 120.593ZM342.069 119.27C342.469 119.27 342.827 119.171 343.143 118.975C343.458 118.778 343.707 118.513 343.891 118.181C344.074 117.848 344.165 117.477 344.165 117.066C344.165 116.666 344.076 116.301 343.896 115.972C343.719 115.643 343.475 115.382 343.163 115.189C342.854 114.995 342.501 114.898 342.105 114.898C341.803 114.898 341.523 114.956 341.265 115.071C341.01 115.187 340.787 115.346 340.593 115.55C340.4 115.753 340.247 115.987 340.135 116.252C340.027 116.513 339.972 116.79 339.972 117.082C339.972 117.472 340.062 117.833 340.242 118.165C340.425 118.498 340.675 118.766 340.99 118.969C341.309 119.17 341.669 119.27 342.069 119.27ZM349.81 114.741C349.369 114.741 348.967 114.634 348.604 114.42C348.244 114.203 347.956 113.913 347.739 113.55C347.525 113.187 347.418 112.785 347.418 112.344C347.418 111.903 347.525 111.503 347.739 111.143C347.956 110.78 348.244 110.492 348.604 110.278C348.967 110.061 349.369 109.952 349.81 109.952C350.251 109.952 350.653 110.061 351.016 110.278C351.379 110.492 351.668 110.78 351.881 111.143C352.098 111.503 352.207 111.903 352.207 112.344C352.207 112.785 352.098 113.187 351.881 113.55C351.668 113.913 351.379 114.203 351.016 114.42C350.653 114.634 350.251 114.741 349.81 114.741ZM349.81 113.58C350.041 113.58 350.249 113.525 350.436 113.413C350.623 113.301 350.77 113.151 350.879 112.965C350.991 112.778 351.047 112.571 351.047 112.344C351.047 112.117 350.991 111.91 350.879 111.723C350.77 111.537 350.623 111.389 350.436 111.28C350.249 111.168 350.041 111.112 349.81 111.112C349.583 111.112 349.376 111.168 349.189 111.28C349.003 111.389 348.853 111.537 348.741 111.723C348.633 111.91 348.579 112.117 348.579 112.344C348.579 112.571 348.633 112.778 348.741 112.965C348.853 113.151 349.003 113.301 349.189 113.413C349.376 113.525 349.583 113.58 349.81 113.58Z" fill="white"/>
<circle cx="47.5954" cy="91.6087" r="2.5589" fill="white"/>
<line x1="47.5955" y1="95.1911" x2="47.5955" y2="125.898" stroke="#FFC355" stroke-width="1.02356" stroke-dasharray="2.05 2.05"/>
<g clip-path="url(#clip1_0_1)">
<path d="M236.847 172.491C237.041 172.368 237.249 172.267 237.469 172.189C237.467 172.132 237.465 172.074 237.465 172.016C237.465 169.983 238.946 168.297 240.887 167.976C240.148 167.628 239.456 167.148 238.846 166.536C237.247 164.946 236.549 162.789 236.746 160.713C236.804 160.11 235.946 159.464 235.401 159.849C235.074 160.081 234.769 160.343 234.479 160.633C231.637 163.465 231.637 168.068 234.479 170.899C235.178 171.604 235.985 172.134 236.847 172.491Z" fill="white"/>
<path d="M243.668 165.064L243.129 163.276L244.879 161.954L242.673 161.892L241.94 159.847L241.207 161.892L239.001 161.954L240.75 163.276L240.121 165.363L241.94 164.128L243.511 165.195C243.563 165.15 243.615 165.107 243.668 165.064Z" fill="white"/>
<path d="M250.481 161.21L249.347 162.063L249.755 163.413L248.579 162.615L247.404 163.413L247.812 162.063L246.677 161.21L248.102 161.176L248.579 159.847L249.056 161.176L250.481 161.21Z" fill="white"/>
<path d="M252.819 179.181H249.757L250.637 177.641C251.027 176.959 250.534 176.11 249.748 176.11H248.725V172.016C248.725 170.966 247.333 170.597 246.812 171.508L242.428 179.181H239.513C237.817 179.181 236.442 177.806 236.442 176.11C236.442 174.772 237.298 173.633 238.493 173.213C238.49 173.155 238.489 173.097 238.489 173.039C238.489 170.778 240.322 168.945 242.583 168.945C242.654 168.945 242.724 168.947 242.794 168.95C243.46 166.585 245.634 164.851 248.213 164.851C251.322 164.851 253.842 167.371 253.842 170.48C253.842 170.694 253.831 170.905 253.807 171.112C255.591 171.554 256.913 173.166 256.913 175.086C256.913 177.348 255.08 179.181 252.819 179.181Z" fill="white"/>
<path d="M243.607 179.181H245.654V184.298L249.748 177.133H247.701V172.016L243.607 179.181Z" fill="white"/>
</g>
<path d="M342.902 180.204H345.963C348.224 180.204 350.057 178.371 350.057 176.11C350.057 174.19 348.735 172.578 346.952 172.136C346.975 171.928 346.987 171.718 346.987 171.504C346.987 168.395 344.466 165.874 341.357 165.874C338.778 165.874 336.605 167.608 335.938 169.974C335.868 169.97 335.798 169.969 335.728 169.969C333.466 169.969 331.633 171.802 331.633 174.063C331.633 174.121 331.635 174.179 331.637 174.236C330.442 174.657 329.586 175.795 329.586 177.133C329.586 178.829 330.961 180.204 332.657 180.204H335.572L339.957 172.531C340.477 171.62 341.869 171.99 341.869 173.039V177.133H342.892C343.678 177.133 344.171 177.983 343.781 178.665L342.902 180.204Z" fill="white"/>
<path d="M336.751 180.204L340.845 173.039V178.157H342.892L338.798 185.322V180.204H336.751Z" fill="white"/>
<path d="M33.4569 152.045V158H32.7358V152.801H32.7009L31.247 153.766V153.033L32.7358 152.045H33.4569ZM37.2633 152.045V158H36.5421V152.801H36.5073L35.0533 153.766V153.033L36.5421 152.045H37.2633ZM39.1359 158.047C38.9925 158.047 38.8694 157.995 38.7666 157.892C38.6639 157.79 38.6125 157.667 38.6125 157.523C38.6125 157.38 38.6639 157.257 38.7666 157.154C38.8694 157.051 38.9925 157 39.1359 157C39.2794 157 39.4025 157.051 39.5052 157.154C39.608 157.257 39.6594 157.38 39.6594 157.523C39.6594 157.618 39.6351 157.705 39.5867 157.785C39.5401 157.864 39.4771 157.928 39.3976 157.977C39.3201 158.023 39.2329 158.047 39.1359 158.047ZM40.9453 158L43.6089 152.731V152.684H40.5382V152.045H44.3533V152.719L41.7014 158H40.9453ZM46.0886 156.372L46.077 155.523H46.2165L48.1706 153.534H49.0197L46.9377 155.639H46.8795L46.0886 156.372ZM45.4489 158V152.045H46.1351V158H45.4489ZM48.2869 158L46.5422 155.79L47.0307 155.313L49.1593 158H48.2869ZM49.903 158V153.534H50.5659V154.231H50.6241C50.7171 153.993 50.8674 153.808 51.0748 153.676C51.2822 153.542 51.5313 153.475 51.8221 153.475C52.1168 153.475 52.362 153.542 52.5578 153.676C52.7555 153.808 52.9097 153.993 53.0202 154.231H53.0667C53.1811 154.001 53.3526 153.818 53.5814 153.682C53.8101 153.544 54.0844 153.475 54.4043 153.475C54.8036 153.475 55.1303 153.6 55.3842 153.851C55.6382 154.099 55.7652 154.485 55.7652 155.011V158H55.0789V155.011C55.0789 154.681 54.9888 154.446 54.8085 154.304C54.6282 154.163 54.4159 154.092 54.1717 154.092C53.8576 154.092 53.6143 154.187 53.4418 154.377C53.2693 154.565 53.183 154.803 53.183 155.092V158H52.4851V154.941C52.4851 154.687 52.4027 154.482 52.2379 154.327C52.0732 154.17 51.8609 154.092 51.6011 154.092C51.4228 154.092 51.2561 154.139 51.101 154.234C50.9478 154.329 50.8238 154.461 50.7288 154.63C50.6357 154.797 50.5892 154.989 50.5892 155.208V158H49.903ZM59.1252 151.766L57.206 158.896H56.5779L58.4971 151.766H59.1252ZM60.6249 155.313V158H59.9386V152.045H60.6249V154.231H60.683C60.7877 154.001 60.9448 153.818 61.1541 153.682C61.3654 153.544 61.6465 153.475 61.9974 153.475C62.3017 153.475 62.5683 153.536 62.797 153.659C63.0258 153.779 63.2032 153.964 63.3292 154.214C63.4571 154.462 63.5211 154.778 63.5211 155.162V158H62.8349V155.208C62.8349 154.854 62.7428 154.579 62.5586 154.386C62.3764 154.19 62.1234 154.092 61.7997 154.092C61.5748 154.092 61.3732 154.139 61.1948 154.234C61.0184 154.329 60.8788 154.468 60.7761 154.65C60.6753 154.832 60.6249 155.053 60.6249 155.313Z" fill="white"/>
<path d="M44.1149 163.304V169.259H43.417L40.1719 164.583H40.1137V169.259H39.3926V163.304H40.0904L43.3472 167.991H43.4054V163.304H44.1149ZM47.2794 169.352C46.8761 169.352 46.5223 169.256 46.218 169.064C45.9156 168.872 45.6791 168.604 45.5085 168.259C45.3398 167.914 45.2555 167.511 45.2555 167.049C45.2555 166.584 45.3398 166.178 45.5085 165.831C45.6791 165.484 45.9156 165.214 46.218 165.022C46.5223 164.831 46.8761 164.735 47.2794 164.735C47.6826 164.735 48.0354 164.831 48.3378 165.022C48.6422 165.214 48.8787 165.484 49.0473 165.831C49.2179 166.178 49.3032 166.584 49.3032 167.049C49.3032 167.511 49.2179 167.914 49.0473 168.259C48.8787 168.604 48.6422 168.872 48.3378 169.064C48.0354 169.256 47.6826 169.352 47.2794 169.352ZM47.2794 168.736C47.5856 168.736 47.8377 168.657 48.0354 168.5C48.2331 168.343 48.3795 168.137 48.4745 167.881C48.5695 167.625 48.617 167.348 48.617 167.049C48.617 166.751 48.5695 166.472 48.4745 166.215C48.3795 165.957 48.2331 165.748 48.0354 165.589C47.8377 165.43 47.5856 165.351 47.2794 165.351C46.9731 165.351 46.721 165.43 46.5233 165.589C46.3256 165.748 46.1792 165.957 46.0842 166.215C45.9892 166.472 45.9417 166.751 45.9417 167.049C45.9417 167.348 45.9892 167.625 46.0842 167.881C46.1792 168.137 46.3256 168.343 46.5233 168.5C46.721 168.657 46.9731 168.736 47.2794 168.736ZM51.2108 169.259L49.8499 164.793H50.571L51.5364 168.212H51.583L52.5367 164.793H53.2695L54.2116 168.201H54.2582L55.2236 164.793H55.9447L54.5839 169.259H53.9092L52.9322 165.828H52.8624L51.8854 169.259H51.2108Z" fill="white"/>
<path d="M132.223 166.963C132.467 166.965 132.711 167.012 132.956 167.103C133.2 167.194 133.423 167.345 133.624 167.557C133.826 167.766 133.988 168.052 134.11 168.414C134.232 168.777 134.293 169.231 134.293 169.778C134.293 170.307 134.243 170.777 134.142 171.188C134.043 171.597 133.9 171.943 133.712 172.224C133.525 172.505 133.299 172.718 133.031 172.863C132.766 173.009 132.465 173.081 132.13 173.081C131.796 173.081 131.499 173.016 131.237 172.884C130.977 172.75 130.764 172.565 130.597 172.328C130.433 172.09 130.327 171.814 130.28 171.5H130.99C131.054 171.773 131.181 171.999 131.371 172.177C131.563 172.353 131.816 172.442 132.13 172.442C132.589 172.442 132.952 172.241 133.217 171.84C133.485 171.438 133.619 170.871 133.619 170.139H133.572C133.463 170.302 133.335 170.442 133.185 170.56C133.036 170.679 132.87 170.77 132.688 170.834C132.506 170.898 132.312 170.93 132.106 170.93C131.765 170.93 131.452 170.845 131.167 170.677C130.884 170.506 130.657 170.272 130.487 169.976C130.318 169.677 130.234 169.336 130.234 168.952C130.234 168.588 130.315 168.254 130.478 167.952C130.643 167.648 130.874 167.405 131.17 167.225C131.469 167.045 131.82 166.958 132.223 166.963ZM132.223 167.603C131.979 167.603 131.758 167.664 131.563 167.786C131.369 167.906 131.215 168.069 131.1 168.275C130.988 168.478 130.932 168.704 130.932 168.952C130.932 169.2 130.986 169.426 131.095 169.63C131.205 169.831 131.355 169.992 131.545 170.113C131.737 170.231 131.955 170.29 132.2 170.29C132.384 170.29 132.555 170.254 132.714 170.182C132.873 170.109 133.012 170.009 133.13 169.883C133.25 169.755 133.344 169.61 133.412 169.45C133.48 169.287 133.514 169.117 133.514 168.941C133.514 168.708 133.458 168.49 133.345 168.286C133.235 168.083 133.082 167.918 132.886 167.792C132.692 167.666 132.471 167.603 132.223 167.603ZM135.741 173.047C135.597 173.047 135.474 172.995 135.371 172.892C135.269 172.79 135.217 172.667 135.217 172.523C135.217 172.38 135.269 172.257 135.371 172.154C135.474 172.051 135.597 172 135.741 172C135.884 172 136.007 172.051 136.11 172.154C136.213 172.257 136.264 172.38 136.264 172.523C136.264 172.618 136.24 172.705 136.191 172.785C136.145 172.864 136.082 172.928 136.002 172.977C135.925 173.023 135.837 173.047 135.741 173.047ZM139.272 173.081C138.888 173.081 138.546 173.016 138.246 172.884C137.947 172.752 137.71 172.569 137.533 172.334C137.359 172.098 137.264 171.823 137.248 171.511H137.981C137.997 171.703 138.062 171.869 138.179 172.008C138.295 172.146 138.447 172.253 138.635 172.328C138.823 172.404 139.032 172.442 139.26 172.442C139.516 172.442 139.743 172.397 139.941 172.308C140.139 172.219 140.294 172.095 140.406 171.936C140.519 171.777 140.575 171.593 140.575 171.383C140.575 171.164 140.521 170.971 140.412 170.805C140.303 170.636 140.144 170.504 139.935 170.409C139.726 170.314 139.47 170.267 139.167 170.267H138.691V169.627H139.167C139.404 169.627 139.611 169.584 139.79 169.499C139.97 169.414 140.111 169.293 140.211 169.138C140.314 168.983 140.365 168.801 140.365 168.592C140.365 168.39 140.321 168.215 140.232 168.065C140.143 167.916 140.017 167.8 139.854 167.716C139.693 167.633 139.503 167.591 139.284 167.591C139.078 167.591 138.884 167.629 138.702 167.705C138.522 167.778 138.375 167.886 138.26 168.028C138.146 168.167 138.084 168.336 138.074 168.534H137.376C137.388 168.221 137.482 167.948 137.658 167.714C137.835 167.477 138.065 167.293 138.35 167.161C138.637 167.029 138.952 166.963 139.295 166.963C139.664 166.963 139.98 167.038 140.243 167.187C140.507 167.335 140.71 167.529 140.851 167.772C140.993 168.014 141.063 168.276 141.063 168.557C141.063 168.892 140.975 169.178 140.799 169.415C140.624 169.651 140.387 169.815 140.086 169.906V169.953C140.462 170.015 140.756 170.175 140.967 170.432C141.179 170.688 141.284 171.005 141.284 171.383C141.284 171.707 141.196 171.998 141.02 172.256C140.845 172.511 140.607 172.713 140.304 172.86C140.002 173.008 139.658 173.081 139.272 173.081ZM143.125 171.372L143.113 170.523H143.253L145.207 168.534H146.056L143.974 170.639H143.916L143.125 171.372ZM142.485 173V167.045H143.172V173H142.485ZM145.323 173L143.579 170.79L144.067 170.313L146.196 173H145.323ZM146.939 173V168.534H147.602V169.231H147.661C147.754 168.993 147.904 168.808 148.111 168.676C148.319 168.542 148.568 168.475 148.859 168.475C149.153 168.475 149.398 168.542 149.594 168.676C149.792 168.808 149.946 168.993 150.057 169.231H150.103C150.217 169.001 150.389 168.818 150.618 168.682C150.847 168.544 151.121 168.475 151.441 168.475C151.84 168.475 152.167 168.6 152.421 168.851C152.675 169.099 152.802 169.485 152.802 170.011V173H152.115V170.011C152.115 169.681 152.025 169.446 151.845 169.304C151.665 169.163 151.452 169.092 151.208 169.092C150.894 169.092 150.651 169.187 150.478 169.377C150.306 169.565 150.219 169.803 150.219 170.092V173H149.522V169.941C149.522 169.687 149.439 169.482 149.274 169.327C149.11 169.17 148.897 169.092 148.638 169.092C148.459 169.092 148.292 169.139 148.137 169.234C147.984 169.329 147.86 169.461 147.765 169.63C147.672 169.797 147.626 169.989 147.626 170.208V173H146.939ZM156.162 166.766L154.242 173.896H153.614L155.533 166.766H156.162ZM157.661 170.313V173H156.975V167.045H157.661V169.231H157.719C157.824 169.001 157.981 168.818 158.191 168.682C158.402 168.544 158.683 168.475 159.034 168.475C159.338 168.475 159.605 168.536 159.833 168.659C160.062 168.779 160.24 168.964 160.366 169.214C160.494 169.462 160.558 169.778 160.558 170.162V173H159.871V170.208C159.871 169.854 159.779 169.579 159.595 169.386C159.413 169.19 159.16 169.092 158.836 169.092C158.611 169.092 158.41 169.139 158.231 169.234C158.055 169.329 157.915 169.468 157.813 169.65C157.712 169.832 157.661 170.053 157.661 170.313Z" fill="white"/>
<path d="M134.861 184.259V183.736L136.827 181.584C137.057 181.332 137.247 181.113 137.396 180.927C137.546 180.739 137.656 180.562 137.728 180.398C137.802 180.231 137.838 180.056 137.838 179.874C137.838 179.665 137.788 179.484 137.687 179.33C137.588 179.177 137.453 179.059 137.28 178.976C137.108 178.892 136.914 178.851 136.699 178.851C136.47 178.851 136.27 178.898 136.1 178.993C135.931 179.086 135.8 179.217 135.707 179.386C135.616 179.554 135.57 179.752 135.57 179.979H134.884C134.884 179.63 134.965 179.324 135.125 179.06C135.286 178.796 135.505 178.591 135.783 178.443C136.062 178.296 136.375 178.222 136.722 178.222C137.071 178.222 137.38 178.296 137.649 178.443C137.919 178.591 138.13 178.79 138.283 179.04C138.437 179.29 138.513 179.568 138.513 179.874C138.513 180.093 138.473 180.307 138.394 180.517C138.316 180.724 138.181 180.956 137.987 181.212C137.795 181.466 137.528 181.776 137.187 182.142L135.85 183.573V183.619H138.618V184.259H134.861ZM139.819 184.259V183.736L141.784 181.584C142.015 181.332 142.205 181.113 142.354 180.927C142.504 180.739 142.614 180.562 142.686 180.398C142.76 180.231 142.796 180.056 142.796 179.874C142.796 179.665 142.746 179.484 142.645 179.33C142.546 179.177 142.411 179.059 142.238 178.976C142.066 178.892 141.872 178.851 141.656 178.851C141.428 178.851 141.228 178.898 141.057 178.993C140.889 179.086 140.758 179.217 140.665 179.386C140.574 179.554 140.528 179.752 140.528 179.979H139.842C139.842 179.63 139.922 179.324 140.083 179.06C140.244 178.796 140.463 178.591 140.741 178.443C141.02 178.296 141.333 178.222 141.68 178.222C142.029 178.222 142.338 178.296 142.607 178.443C142.877 178.591 143.088 178.79 143.241 179.04C143.394 179.29 143.471 179.568 143.471 179.874C143.471 180.093 143.431 180.307 143.352 180.517C143.274 180.724 143.139 180.956 142.945 181.212C142.753 181.466 142.486 181.776 142.145 182.142L140.807 183.573V183.619H143.576V184.259H139.819ZM145.288 183.497C145.145 183.497 145.022 183.446 144.919 183.343C144.816 183.24 144.765 183.117 144.765 182.974C144.765 182.83 144.816 182.707 144.919 182.605C145.022 182.502 145.145 182.45 145.288 182.45C145.432 182.45 145.555 182.502 145.658 182.605C145.76 182.707 145.812 182.83 145.812 182.974C145.812 183.069 145.788 183.156 145.739 183.236C145.693 183.315 145.63 183.379 145.55 183.428C145.473 183.474 145.385 183.497 145.288 183.497ZM145.288 180.485C145.145 180.485 145.022 180.433 144.919 180.331C144.816 180.228 144.765 180.105 144.765 179.961C144.765 179.818 144.816 179.695 144.919 179.592C145.022 179.489 145.145 179.438 145.288 179.438C145.432 179.438 145.555 179.489 145.658 179.592C145.76 179.695 145.812 179.818 145.812 179.961C145.812 180.056 145.788 180.144 145.739 180.223C145.693 180.303 145.63 180.367 145.55 180.415C145.473 180.462 145.385 180.485 145.288 180.485ZM148.974 184.341C148.536 184.341 148.163 184.221 147.855 183.983C147.546 183.743 147.311 183.395 147.148 182.939C146.985 182.481 146.904 181.929 146.904 181.282C146.904 180.638 146.985 180.088 147.148 179.633C147.313 179.175 147.549 178.826 147.857 178.586C148.168 178.344 148.54 178.222 148.974 178.222C149.408 178.222 149.78 178.344 150.088 178.586C150.398 178.826 150.634 179.175 150.797 179.633C150.962 180.088 151.044 180.638 151.044 181.282C151.044 181.929 150.963 182.481 150.8 182.939C150.637 183.395 150.402 183.743 150.094 183.983C149.785 184.221 149.412 184.341 148.974 184.341ZM148.974 183.701C149.408 183.701 149.746 183.491 149.986 183.073C150.226 182.654 150.347 182.057 150.347 181.282C150.347 180.766 150.291 180.327 150.181 179.964C150.072 179.602 149.915 179.326 149.71 179.136C149.506 178.946 149.261 178.851 148.974 178.851C148.544 178.851 148.207 179.063 147.965 179.487C147.723 179.91 147.602 180.508 147.602 181.282C147.602 181.797 147.656 182.235 147.764 182.596C147.873 182.956 148.029 183.231 148.233 183.419C148.438 183.607 148.685 183.701 148.974 183.701ZM154.092 184.341C153.654 184.341 153.281 184.221 152.972 183.983C152.664 183.743 152.429 183.395 152.266 182.939C152.103 182.481 152.021 181.929 152.021 181.282C152.021 180.638 152.103 180.088 152.266 179.633C152.431 179.175 152.667 178.826 152.975 178.586C153.285 178.344 153.658 178.222 154.092 178.222C154.526 178.222 154.897 178.344 155.206 178.586C155.516 178.826 155.752 179.175 155.915 179.633C156.08 180.088 156.162 180.638 156.162 181.282C156.162 181.929 156.081 182.481 155.918 182.939C155.755 183.395 155.52 183.743 155.211 183.983C154.903 184.221 154.53 184.341 154.092 184.341ZM154.092 183.701C154.526 183.701 154.863 183.491 155.104 183.073C155.344 182.654 155.464 182.057 155.464 181.282C155.464 180.766 155.409 180.327 155.299 179.964C155.19 179.602 155.033 179.326 154.828 179.136C154.624 178.946 154.379 178.851 154.092 178.851C153.662 178.851 153.325 179.063 153.083 179.487C152.841 179.91 152.719 180.508 152.719 181.282C152.719 181.797 152.774 182.235 152.882 182.596C152.991 182.956 153.147 183.231 153.35 183.419C153.556 183.607 153.803 183.701 154.092 183.701Z" fill="white"/>
<path d="M234.112 187.045V193H233.391V187.801H233.356L231.902 188.766V188.033L233.391 187.045H234.112ZM235.825 193V192.477L237.79 190.325C238.021 190.073 238.211 189.854 238.36 189.668C238.509 189.48 238.62 189.303 238.692 189.138C238.765 188.972 238.802 188.797 238.802 188.615C238.802 188.406 238.752 188.224 238.651 188.071C238.552 187.918 238.416 187.8 238.244 187.716C238.071 187.633 237.877 187.591 237.662 187.591C237.434 187.591 237.234 187.639 237.063 187.734C236.895 187.827 236.764 187.958 236.671 188.126C236.58 188.295 236.534 188.493 236.534 188.72H235.848C235.848 188.371 235.928 188.064 236.089 187.801C236.25 187.537 236.469 187.332 236.746 187.184C237.025 187.037 237.339 186.963 237.686 186.963C238.034 186.963 238.344 187.037 238.613 187.184C238.883 187.332 239.094 187.53 239.247 187.78C239.4 188.03 239.477 188.309 239.477 188.615C239.477 188.834 239.437 189.048 239.358 189.258C239.28 189.465 239.144 189.697 238.95 189.953C238.759 190.207 238.492 190.517 238.151 190.883L236.813 192.314V192.36H239.581V193H235.825ZM241.434 191.372L241.422 190.523H241.562L243.516 188.534H244.365L242.283 190.639H242.225L241.434 191.372ZM240.794 193V187.045H241.48V193H240.794ZM243.632 193L241.887 190.79L242.376 190.313L244.504 193H243.632ZM245.248 193V188.534H245.911V189.231H245.969C246.062 188.993 246.213 188.808 246.42 188.676C246.627 188.542 246.876 188.475 247.167 188.475C247.462 188.475 247.707 188.542 247.903 188.676C248.101 188.808 248.255 188.993 248.365 189.231H248.412C248.526 189.001 248.698 188.818 248.927 188.682C249.155 188.544 249.43 188.475 249.749 188.475C250.149 188.475 250.475 188.6 250.729 188.851C250.983 189.099 251.11 189.485 251.11 190.011V193H250.424V190.011C250.424 189.681 250.334 189.446 250.154 189.304C249.973 189.163 249.761 189.092 249.517 189.092C249.203 189.092 248.959 189.187 248.787 189.377C248.614 189.565 248.528 189.803 248.528 190.092V193H247.83V189.941C247.83 189.687 247.748 189.482 247.583 189.327C247.418 189.17 247.206 189.092 246.946 189.092C246.768 189.092 246.601 189.139 246.446 189.234C246.293 189.329 246.169 189.461 246.074 189.63C245.981 189.797 245.934 189.989 245.934 190.208V193H245.248ZM254.47 186.766L252.551 193.896H251.923L253.842 186.766H254.47ZM255.97 190.313V193H255.284V187.045H255.97V189.231H256.028C256.133 189.001 256.29 188.818 256.499 188.682C256.711 188.544 256.992 188.475 257.343 188.475C257.647 188.475 257.913 188.536 258.142 188.659C258.371 188.779 258.548 188.964 258.674 189.214C258.802 189.462 258.866 189.778 258.866 190.162V193H258.18V190.208C258.18 189.854 258.088 189.579 257.904 189.386C257.722 189.19 257.469 189.092 257.145 189.092C256.92 189.092 256.718 189.139 256.54 189.234C256.364 189.329 256.224 189.468 256.121 189.65C256.02 189.832 255.97 190.053 255.97 190.313Z" fill="white"/>
<path d="M236.643 204.341C236.205 204.341 235.832 204.221 235.524 203.983C235.216 203.743 234.98 203.395 234.817 202.939C234.655 202.482 234.573 201.929 234.573 201.282C234.573 200.638 234.655 200.088 234.817 199.633C234.982 199.175 235.219 198.826 235.527 198.586C235.837 198.344 236.209 198.223 236.643 198.223C237.078 198.223 237.449 198.344 237.757 198.586C238.067 198.826 238.304 199.175 238.467 199.633C238.631 200.088 238.714 200.638 238.714 201.282C238.714 201.929 238.632 202.482 238.47 202.939C238.307 203.395 238.071 203.743 237.763 203.983C237.455 204.221 237.082 204.341 236.643 204.341ZM236.643 203.701C237.078 203.701 237.415 203.492 237.655 203.073C237.896 202.654 238.016 202.057 238.016 201.282C238.016 200.766 237.961 200.327 237.85 199.964C237.742 199.602 237.585 199.326 237.379 199.136C237.176 198.946 236.93 198.851 236.643 198.851C236.213 198.851 235.877 199.063 235.634 199.487C235.392 199.91 235.271 200.508 235.271 201.282C235.271 201.797 235.325 202.235 235.434 202.596C235.542 202.956 235.698 203.231 235.902 203.419C236.107 203.607 236.355 203.701 236.643 203.701ZM241.761 204.341C241.323 204.341 240.95 204.221 240.642 203.983C240.334 203.743 240.098 203.395 239.935 202.939C239.772 202.482 239.691 201.929 239.691 201.282C239.691 200.638 239.772 200.088 239.935 199.633C240.1 199.175 240.336 198.826 240.645 198.586C240.955 198.344 241.327 198.223 241.761 198.223C242.196 198.223 242.567 198.344 242.875 198.586C243.185 198.826 243.422 199.175 243.585 199.633C243.749 200.088 243.832 200.638 243.832 201.282C243.832 201.929 243.75 202.482 243.587 202.939C243.425 203.395 243.189 203.743 242.881 203.983C242.573 204.221 242.199 204.341 241.761 204.341ZM241.761 203.701C242.196 203.701 242.533 203.492 242.773 203.073C243.014 202.654 243.134 202.057 243.134 201.282C243.134 200.766 243.079 200.327 242.968 199.964C242.859 199.602 242.702 199.326 242.497 199.136C242.293 198.946 242.048 198.851 241.761 198.851C241.331 198.851 240.995 199.063 240.752 199.487C240.51 199.91 240.389 200.508 240.389 201.282C240.389 201.797 240.443 202.235 240.552 202.596C240.66 202.956 240.816 203.231 241.02 203.419C241.225 203.607 241.472 203.701 241.761 203.701ZM245.448 203.497C245.305 203.497 245.182 203.446 245.079 203.343C244.976 203.24 244.925 203.117 244.925 202.974C244.925 202.83 244.976 202.707 245.079 202.605C245.182 202.502 245.305 202.451 245.448 202.451C245.592 202.451 245.715 202.502 245.818 202.605C245.92 202.707 245.972 202.83 245.972 202.974C245.972 203.069 245.948 203.156 245.899 203.236C245.853 203.315 245.79 203.379 245.71 203.428C245.633 203.474 245.545 203.497 245.448 203.497ZM245.448 200.485C245.305 200.485 245.182 200.433 245.079 200.331C244.976 200.228 244.925 200.105 244.925 199.961C244.925 199.818 244.976 199.695 245.079 199.592C245.182 199.489 245.305 199.438 245.448 199.438C245.592 199.438 245.715 199.489 245.818 199.592C245.92 199.695 245.972 199.818 245.972 199.961C245.972 200.056 245.948 200.144 245.899 200.223C245.853 200.303 245.79 200.367 245.71 200.415C245.633 200.462 245.545 200.485 245.448 200.485ZM249.134 204.341C248.696 204.341 248.323 204.221 248.015 203.983C247.706 203.743 247.471 203.395 247.308 202.939C247.145 202.482 247.064 201.929 247.064 201.282C247.064 200.638 247.145 200.088 247.308 199.633C247.473 199.175 247.709 198.826 248.018 198.586C248.328 198.344 248.7 198.223 249.134 198.223C249.568 198.223 249.94 198.344 250.248 198.586C250.558 198.826 250.794 199.175 250.957 199.633C251.122 200.088 251.205 200.638 251.205 201.282C251.205 201.929 251.123 202.482 250.96 202.939C250.797 203.395 250.562 203.743 250.254 203.983C249.945 204.221 249.572 204.341 249.134 204.341ZM249.134 203.701C249.568 203.701 249.906 203.492 250.146 203.073C250.386 202.654 250.507 202.057 250.507 201.282C250.507 200.766 250.451 200.327 250.341 199.964C250.232 199.602 250.075 199.326 249.87 199.136C249.666 198.946 249.421 198.851 249.134 198.851C248.704 198.851 248.367 199.063 248.125 199.487C247.883 199.91 247.762 200.508 247.762 201.282C247.762 201.797 247.816 202.235 247.924 202.596C248.033 202.956 248.189 203.231 248.393 203.419C248.598 203.607 248.845 203.701 249.134 203.701ZM254.252 204.341C253.814 204.341 253.441 204.221 253.132 203.983C252.824 203.743 252.589 203.395 252.426 202.939C252.263 202.482 252.182 201.929 252.182 201.282C252.182 200.638 252.263 200.088 252.426 199.633C252.591 199.175 252.827 198.826 253.135 198.586C253.445 198.344 253.818 198.223 254.252 198.223C254.686 198.223 255.057 198.344 255.366 198.586C255.676 198.826 255.912 199.175 256.075 199.633C256.24 200.088 256.322 200.638 256.322 201.282C256.322 201.929 256.241 202.482 256.078 202.939C255.915 203.395 255.68 203.743 255.371 203.983C255.063 204.221 254.69 204.341 254.252 204.341ZM254.252 203.701C254.686 203.701 255.023 203.492 255.264 203.073C255.504 202.654 255.624 202.057 255.624 201.282C255.624 200.766 255.569 200.327 255.459 199.964C255.35 199.602 255.193 199.326 254.988 199.136C254.784 198.946 254.539 198.851 254.252 198.851C253.822 198.851 253.485 199.063 253.243 199.487C253.001 199.91 252.879 200.508 252.879 201.282C252.879 201.797 252.934 202.235 253.042 202.596C253.151 202.956 253.307 203.231 253.51 203.419C253.716 203.607 253.963 203.701 254.252 203.701Z" fill="white"/>
<path d="M329.1 190.045V196H328.379V190.801H328.344L326.89 191.766V191.033L328.379 190.045H329.1ZM332.674 196.081C332.333 196.081 332.026 196.014 331.752 195.878C331.479 195.742 331.26 195.556 331.095 195.32C330.93 195.083 330.84 194.814 330.825 194.511H331.523C331.55 194.781 331.672 195.004 331.889 195.18C332.108 195.354 332.37 195.442 332.674 195.442C332.918 195.442 333.135 195.385 333.325 195.27C333.517 195.156 333.668 194.999 333.776 194.799C333.887 194.597 333.942 194.37 333.942 194.116C333.942 193.856 333.885 193.624 333.77 193.421C333.658 193.215 333.503 193.053 333.305 192.935C333.107 192.817 332.881 192.757 332.627 192.755C332.445 192.753 332.258 192.781 332.066 192.839C331.874 192.895 331.716 192.968 331.592 193.057L330.918 192.976L331.278 190.045H334.372V190.684H331.883L331.674 192.441H331.709C331.831 192.344 331.984 192.263 332.168 192.199C332.352 192.135 332.544 192.103 332.744 192.103C333.108 192.103 333.433 192.191 333.718 192.365C334.005 192.538 334.23 192.774 334.393 193.075C334.557 193.375 334.64 193.718 334.64 194.104C334.64 194.484 334.554 194.823 334.384 195.122C334.215 195.418 333.983 195.653 333.686 195.826C333.389 195.996 333.052 196.081 332.674 196.081ZM336.446 194.372L336.435 193.523H336.574L338.528 191.534H339.377L337.295 193.639H337.237L336.446 194.372ZM335.806 196V190.045H336.493V196H335.806ZM338.645 196L336.9 193.79L337.388 193.313L339.517 196H338.645ZM340.261 196V191.534H340.924V192.231H340.982C341.075 191.993 341.225 191.808 341.432 191.676C341.64 191.542 341.889 191.475 342.18 191.475C342.474 191.475 342.72 191.542 342.915 191.676C343.113 191.808 343.267 191.993 343.378 192.231H343.424C343.539 192.001 343.71 191.818 343.939 191.682C344.168 191.544 344.442 191.475 344.762 191.475C345.161 191.475 345.488 191.6 345.742 191.851C345.996 192.099 346.123 192.485 346.123 193.011V196H345.437V193.011C345.437 192.681 345.346 192.446 345.166 192.304C344.986 192.163 344.774 192.092 344.529 192.092C344.215 192.092 343.972 192.187 343.799 192.377C343.627 192.565 343.541 192.803 343.541 193.092V196H342.843V192.941C342.843 192.687 342.76 192.482 342.596 192.327C342.431 192.17 342.219 192.092 341.959 192.092C341.78 192.092 341.614 192.139 341.459 192.234C341.305 192.329 341.181 192.461 341.086 192.63C340.993 192.797 340.947 192.989 340.947 193.208V196H340.261ZM349.483 189.766L347.564 196.896H346.936L348.855 189.766H349.483ZM350.983 193.313V196H350.296V190.045H350.983V192.231H351.041C351.145 192.001 351.302 191.818 351.512 191.682C351.723 191.544 352.004 191.475 352.355 191.475C352.659 191.475 352.926 191.536 353.155 191.659C353.383 191.779 353.561 191.964 353.687 192.214C353.815 192.462 353.879 192.778 353.879 193.162V196H353.192V193.208C353.192 192.854 353.1 192.579 352.916 192.386C352.734 192.19 352.481 192.092 352.157 192.092C351.932 192.092 351.731 192.139 351.552 192.234C351.376 192.329 351.236 192.468 351.134 192.65C351.033 192.832 350.983 193.053 350.983 193.313Z" fill="white"/>
<path d="M332.34 207.259V206.736L334.306 204.584C334.536 204.332 334.726 204.113 334.875 203.927C335.025 203.739 335.135 203.562 335.207 203.398C335.281 203.231 335.317 203.056 335.317 202.874C335.317 202.665 335.267 202.484 335.166 202.33C335.067 202.177 334.932 202.059 334.759 201.976C334.587 201.892 334.393 201.851 334.178 201.851C333.949 201.851 333.749 201.898 333.579 201.993C333.41 202.086 333.279 202.217 333.186 202.386C333.095 202.554 333.049 202.752 333.049 202.979H332.363C332.363 202.63 332.444 202.324 332.604 202.06C332.765 201.796 332.984 201.591 333.262 201.443C333.541 201.296 333.854 201.222 334.201 201.222C334.55 201.222 334.859 201.296 335.128 201.443C335.398 201.591 335.609 201.79 335.762 202.04C335.916 202.29 335.992 202.568 335.992 202.874C335.992 203.093 335.952 203.307 335.873 203.517C335.795 203.724 335.66 203.956 335.466 204.212C335.274 204.466 335.007 204.776 334.666 205.142L333.329 206.573V206.619H336.097V207.259H332.34ZM337.81 206.497C337.666 206.497 337.543 206.446 337.44 206.343C337.337 206.24 337.286 206.117 337.286 205.974C337.286 205.83 337.337 205.707 337.44 205.605C337.543 205.502 337.666 205.45 337.81 205.45C337.953 205.45 338.076 205.502 338.179 205.605C338.282 205.707 338.333 205.83 338.333 205.974C338.333 206.069 338.309 206.156 338.26 206.236C338.214 206.315 338.151 206.379 338.071 206.428C337.994 206.474 337.906 206.497 337.81 206.497ZM337.81 203.485C337.666 203.485 337.543 203.433 337.44 203.331C337.337 203.228 337.286 203.105 337.286 202.961C337.286 202.818 337.337 202.695 337.44 202.592C337.543 202.489 337.666 202.438 337.81 202.438C337.953 202.438 338.076 202.489 338.179 202.592C338.282 202.695 338.333 202.818 338.333 202.961C338.333 203.056 338.309 203.144 338.26 203.223C338.214 203.303 338.151 203.367 338.071 203.415C337.994 203.462 337.906 203.485 337.81 203.485ZM341.495 207.341C341.057 207.341 340.684 207.221 340.376 206.983C340.067 206.743 339.832 206.395 339.669 205.939C339.506 205.481 339.425 204.929 339.425 204.282C339.425 203.638 339.506 203.088 339.669 202.633C339.834 202.175 340.07 201.826 340.379 201.586C340.689 201.344 341.061 201.222 341.495 201.222C341.929 201.222 342.301 201.344 342.609 201.586C342.919 201.826 343.156 202.175 343.318 202.633C343.483 203.088 343.566 203.638 343.566 204.282C343.566 204.929 343.484 205.481 343.321 205.939C343.158 206.395 342.923 206.743 342.615 206.983C342.306 207.221 341.933 207.341 341.495 207.341ZM341.495 206.701C341.929 206.701 342.267 206.491 342.507 206.073C342.748 205.654 342.868 205.057 342.868 204.282C342.868 203.766 342.812 203.327 342.702 202.964C342.593 202.602 342.436 202.326 342.231 202.136C342.027 201.946 341.782 201.851 341.495 201.851C341.065 201.851 340.728 202.063 340.486 202.487C340.244 202.91 340.123 203.508 340.123 204.282C340.123 204.797 340.177 205.235 340.286 205.596C340.394 205.956 340.55 206.231 340.754 206.419C340.959 206.607 341.206 206.701 341.495 206.701ZM346.613 207.341C346.175 207.341 345.802 207.221 345.493 206.983C345.185 206.743 344.95 206.395 344.787 205.939C344.624 205.481 344.543 204.929 344.543 204.282C344.543 203.638 344.624 203.088 344.787 202.633C344.952 202.175 345.188 201.826 345.496 201.586C345.807 201.344 346.179 201.222 346.613 201.222C347.047 201.222 347.418 201.344 347.727 201.586C348.037 201.826 348.273 202.175 348.436 202.633C348.601 203.088 348.683 203.638 348.683 204.282C348.683 204.929 348.602 205.481 348.439 205.939C348.276 206.395 348.041 206.743 347.733 206.983C347.424 207.221 347.051 207.341 346.613 207.341ZM346.613 206.701C347.047 206.701 347.385 206.491 347.625 206.073C347.865 205.654 347.985 205.057 347.985 204.282C347.985 203.766 347.93 203.327 347.82 202.964C347.711 202.602 347.554 202.326 347.349 202.136C347.145 201.946 346.9 201.851 346.613 201.851C346.183 201.851 345.846 202.063 345.604 202.487C345.362 202.91 345.24 203.508 345.24 204.282C345.24 204.797 345.295 205.235 345.403 205.596C345.512 205.956 345.668 206.231 345.871 206.419C346.077 206.607 346.324 206.701 346.613 206.701Z" fill="white"/>
<path d="M464.658 128V126.86L468.185 123.206C468.561 122.81 468.872 122.462 469.116 122.163C469.364 121.861 469.548 121.575 469.671 121.303C469.793 121.032 469.854 120.743 469.854 120.438C469.854 120.092 469.772 119.794 469.609 119.543C469.447 119.288 469.224 119.093 468.943 118.957C468.661 118.818 468.344 118.749 467.991 118.749C467.618 118.749 467.292 118.825 467.014 118.978C466.736 119.13 466.522 119.346 466.373 119.624C466.224 119.902 466.149 120.228 466.149 120.601H464.648C464.648 119.967 464.794 119.412 465.086 118.937C465.377 118.462 465.778 118.094 466.287 117.833C466.795 117.568 467.374 117.436 468.022 117.436C468.677 117.436 469.253 117.566 469.752 117.828C470.254 118.085 470.646 118.438 470.927 118.886C471.209 119.331 471.35 119.833 471.35 120.392C471.35 120.779 471.277 121.157 471.131 121.527C470.989 121.897 470.739 122.309 470.383 122.764C470.027 123.215 469.531 123.763 468.897 124.407L466.826 126.575V126.651H471.518V128H464.658ZM477.075 128.173C476.271 128.17 475.584 127.958 475.014 127.537C474.444 127.116 474.008 126.504 473.706 125.7C473.404 124.896 473.253 123.927 473.253 122.794C473.253 121.665 473.404 120.699 473.706 119.899C474.011 119.098 474.449 118.487 475.019 118.067C475.592 117.646 476.277 117.436 477.075 117.436C477.872 117.436 478.555 117.648 479.125 118.072C479.695 118.493 480.131 119.103 480.433 119.904C480.739 120.701 480.891 121.665 480.891 122.794C480.891 123.931 480.74 124.901 480.438 125.705C480.136 126.506 479.7 127.118 479.13 127.542C478.561 127.963 477.875 128.173 477.075 128.173ZM477.075 126.814C477.78 126.814 478.332 126.47 478.728 125.781C479.129 125.093 479.329 124.097 479.329 122.794C479.329 121.929 479.237 121.198 479.054 120.601C478.874 120.001 478.615 119.546 478.276 119.237C477.94 118.925 477.539 118.769 477.075 118.769C476.372 118.769 475.821 119.115 475.421 119.807C475.021 120.499 474.819 121.495 474.815 122.794C474.815 123.663 474.905 124.397 475.085 124.998C475.268 125.595 475.528 126.048 475.864 126.356C476.199 126.662 476.603 126.814 477.075 126.814ZM484.961 122.29C484.52 122.29 484.118 122.184 483.755 121.97C483.395 121.753 483.107 121.463 482.89 121.1C482.676 120.737 482.569 120.335 482.569 119.894C482.569 119.453 482.676 119.052 482.89 118.693C483.107 118.33 483.395 118.041 483.755 117.828C484.118 117.611 484.52 117.502 484.961 117.502C485.402 117.502 485.804 117.611 486.167 117.828C486.53 118.041 486.818 118.33 487.032 118.693C487.249 119.052 487.358 119.453 487.358 119.894C487.358 120.335 487.249 120.737 487.032 121.1C486.818 121.463 486.53 121.753 486.167 121.97C485.804 122.184 485.402 122.29 484.961 122.29ZM484.961 121.13C485.192 121.13 485.4 121.074 485.587 120.962C485.773 120.85 485.921 120.701 486.03 120.514C486.141 120.328 486.197 120.121 486.197 119.894C486.197 119.666 486.141 119.459 486.03 119.273C485.921 119.086 485.773 118.939 485.587 118.83C485.4 118.718 485.192 118.662 484.961 118.662C484.734 118.662 484.527 118.718 484.34 118.83C484.153 118.939 484.004 119.086 483.892 119.273C483.784 119.459 483.729 119.666 483.729 119.894C483.729 120.121 483.784 120.328 483.892 120.514C484.004 120.701 484.153 120.85 484.34 120.962C484.527 121.074 484.734 121.13 484.961 121.13Z" fill="white"/>
<path d="M474.528 187.754H477.589C479.85 187.754 481.683 185.921 481.683 183.66C481.683 181.739 480.361 180.128 478.578 179.686C478.601 179.478 478.613 179.267 478.613 179.054C478.613 175.945 476.092 173.424 472.983 173.424C470.404 173.424 468.23 175.158 467.564 177.524C467.494 177.52 467.424 177.518 467.354 177.518C465.092 177.518 463.259 179.351 463.259 181.613C463.259 181.671 463.26 181.728 463.263 181.786C462.068 182.207 461.212 183.345 461.212 184.683C461.212 186.379 462.587 187.754 464.283 187.754H467.198L471.583 180.081C472.103 179.17 473.495 179.539 473.495 180.589V184.683H474.518C475.304 184.683 475.797 185.532 475.407 186.215L474.528 187.754Z" fill="white"/>
<path d="M468.377 187.754L472.471 180.589V185.707H474.518L470.424 192.872V187.754H468.377Z" fill="white"/>
<path d="M460.1 197.045V203H459.379V197.801H459.344L457.89 198.766V198.033L459.379 197.045H460.1ZM463.674 203.081C463.333 203.081 463.026 203.014 462.752 202.878C462.479 202.742 462.26 202.556 462.095 202.32C461.93 202.083 461.84 201.814 461.825 201.511H462.523C462.55 201.781 462.672 202.004 462.889 202.18C463.108 202.354 463.37 202.442 463.674 202.442C463.918 202.442 464.135 202.385 464.325 202.27C464.517 202.156 464.668 201.999 464.776 201.799C464.887 201.597 464.942 201.37 464.942 201.116C464.942 200.856 464.885 200.624 464.77 200.421C464.658 200.215 464.503 200.053 464.305 199.935C464.107 199.817 463.881 199.757 463.627 199.755C463.445 199.753 463.258 199.781 463.066 199.839C462.874 199.895 462.716 199.968 462.592 200.057L461.918 199.976L462.278 197.045H465.372V197.684H462.883L462.674 199.441H462.709C462.831 199.344 462.984 199.263 463.168 199.199C463.352 199.135 463.544 199.103 463.744 199.103C464.108 199.103 464.433 199.191 464.718 199.365C465.005 199.538 465.23 199.774 465.393 200.075C465.557 200.375 465.64 200.718 465.64 201.104C465.64 201.484 465.554 201.823 465.384 202.122C465.215 202.418 464.983 202.653 464.686 202.826C464.389 202.996 464.052 203.081 463.674 203.081ZM467.446 201.372L467.435 200.523H467.574L469.528 198.534H470.377L468.295 200.639H468.237L467.446 201.372ZM466.806 203V197.045H467.493V203H466.806ZM469.645 203L467.9 200.79L468.388 200.313L470.517 203H469.645ZM471.261 203V198.534H471.924V199.231H471.982C472.075 198.993 472.225 198.808 472.432 198.676C472.64 198.542 472.889 198.475 473.18 198.475C473.474 198.475 473.72 198.542 473.915 198.676C474.113 198.808 474.267 198.993 474.378 199.231H474.424C474.539 199.001 474.71 198.818 474.939 198.682C475.168 198.544 475.442 198.475 475.762 198.475C476.161 198.475 476.488 198.6 476.742 198.851C476.996 199.099 477.123 199.485 477.123 200.011V203H476.437V200.011C476.437 199.681 476.346 199.446 476.166 199.304C475.986 199.163 475.774 199.092 475.529 199.092C475.215 199.092 474.972 199.187 474.799 199.377C474.627 199.565 474.541 199.803 474.541 200.092V203H473.843V199.941C473.843 199.687 473.76 199.482 473.596 199.327C473.431 199.17 473.219 199.092 472.959 199.092C472.78 199.092 472.614 199.139 472.459 199.234C472.305 199.329 472.181 199.461 472.086 199.63C471.993 199.797 471.947 199.989 471.947 200.208V203H471.261ZM480.483 196.766L478.564 203.896H477.936L479.855 196.766H480.483ZM481.983 200.313V203H481.296V197.045H481.983V199.231H482.041C482.145 199.001 482.302 198.818 482.512 198.682C482.723 198.544 483.004 198.475 483.355 198.475C483.659 198.475 483.926 198.536 484.155 198.659C484.383 198.779 484.561 198.964 484.687 199.214C484.815 199.462 484.879 199.778 484.879 200.162V203H484.192V200.208C484.192 199.854 484.1 199.579 483.916 199.386C483.734 199.19 483.481 199.092 483.157 199.092C482.932 199.092 482.731 199.139 482.552 199.234C482.376 199.329 482.236 199.468 482.134 199.65C482.033 199.832 481.983 200.053 481.983 200.313Z" fill="white"/>
<path d="M463.052 213.038V212.445L465.669 208.304H466.1V209.223H465.809L463.832 212.352V212.398H467.356V213.038H463.052ZM465.856 214.259V212.858V212.581V208.304H466.542V214.259H465.856ZM468.957 213.497C468.814 213.497 468.691 213.446 468.588 213.343C468.485 213.24 468.434 213.117 468.434 212.974C468.434 212.83 468.485 212.707 468.588 212.605C468.691 212.502 468.814 212.45 468.957 212.45C469.101 212.45 469.224 212.502 469.327 212.605C469.429 212.707 469.481 212.83 469.481 212.974C469.481 213.069 469.457 213.156 469.408 213.236C469.362 213.315 469.299 213.379 469.219 213.428C469.142 213.474 469.054 213.497 468.957 213.497ZM468.957 210.485C468.814 210.485 468.691 210.433 468.588 210.331C468.485 210.228 468.434 210.105 468.434 209.961C468.434 209.818 468.485 209.695 468.588 209.592C468.691 209.489 468.814 209.438 468.957 209.438C469.101 209.438 469.224 209.489 469.327 209.592C469.429 209.695 469.481 209.818 469.481 209.961C469.481 210.056 469.457 210.144 469.408 210.223C469.362 210.303 469.299 210.367 469.219 210.415C469.142 210.462 469.054 210.485 468.957 210.485ZM472.643 214.341C472.205 214.341 471.832 214.221 471.524 213.983C471.215 213.743 470.98 213.395 470.817 212.939C470.654 212.481 470.573 211.929 470.573 211.282C470.573 210.638 470.654 210.088 470.817 209.633C470.982 209.175 471.218 208.826 471.527 208.586C471.837 208.344 472.209 208.222 472.643 208.222C473.077 208.222 473.449 208.344 473.757 208.586C474.067 208.826 474.304 209.175 474.466 209.633C474.631 210.088 474.714 210.638 474.714 211.282C474.714 211.929 474.632 212.481 474.469 212.939C474.306 213.395 474.071 213.743 473.763 213.983C473.454 214.221 473.081 214.341 472.643 214.341ZM472.643 213.701C473.077 213.701 473.415 213.491 473.655 213.073C473.895 212.654 474.016 212.057 474.016 211.282C474.016 210.766 473.96 210.327 473.85 209.964C473.741 209.602 473.584 209.326 473.379 209.136C473.175 208.946 472.93 208.851 472.643 208.851C472.213 208.851 471.876 209.063 471.634 209.487C471.392 209.91 471.271 210.508 471.271 211.282C471.271 211.797 471.325 212.235 471.433 212.596C471.542 212.956 471.698 213.231 471.902 213.419C472.107 213.607 472.354 213.701 472.643 213.701ZM477.761 214.341C477.323 214.341 476.95 214.221 476.641 213.983C476.333 213.743 476.098 213.395 475.935 212.939C475.772 212.481 475.691 211.929 475.691 211.282C475.691 210.638 475.772 210.088 475.935 209.633C476.1 209.175 476.336 208.826 476.644 208.586C476.954 208.344 477.327 208.222 477.761 208.222C478.195 208.222 478.566 208.344 478.875 208.586C479.185 208.826 479.421 209.175 479.584 209.633C479.749 210.088 479.831 210.638 479.831 211.282C479.831 211.929 479.75 212.481 479.587 212.939C479.424 213.395 479.189 213.743 478.88 213.983C478.572 214.221 478.199 214.341 477.761 214.341ZM477.761 213.701C478.195 213.701 478.532 213.491 478.773 213.073C479.013 212.654 479.133 212.057 479.133 211.282C479.133 210.766 479.078 210.327 478.968 209.964C478.859 209.602 478.702 209.326 478.497 209.136C478.293 208.946 478.048 208.851 477.761 208.851C477.331 208.851 476.994 209.063 476.752 209.487C476.51 209.91 476.388 210.508 476.388 211.282C476.388 211.797 476.443 212.235 476.551 212.596C476.66 212.956 476.816 213.231 477.019 213.419C477.225 213.607 477.472 213.701 477.761 213.701Z" fill="white"/>
<path d="M598.889 131V129.86L602.416 126.206C602.792 125.81 603.103 125.462 603.347 125.163C603.594 124.861 603.779 124.575 603.901 124.303C604.024 124.032 604.085 123.743 604.085 123.438C604.085 123.092 604.003 122.794 603.84 122.543C603.678 122.288 603.455 122.093 603.174 121.957C602.892 121.818 602.575 121.749 602.222 121.749C601.849 121.749 601.523 121.825 601.245 121.978C600.967 122.13 600.753 122.346 600.604 122.624C600.455 122.902 600.38 123.228 600.38 123.601H598.879C598.879 122.967 599.025 122.412 599.317 121.937C599.608 121.462 600.009 121.094 600.517 120.833C601.026 120.568 601.605 120.436 602.253 120.436C602.907 120.436 603.484 120.566 603.983 120.828C604.485 121.085 604.877 121.438 605.158 121.886C605.44 122.331 605.581 122.833 605.581 123.392C605.581 123.779 605.508 124.157 605.362 124.527C605.219 124.897 604.97 125.309 604.614 125.764C604.258 126.215 603.762 126.763 603.128 127.407L601.057 129.575V129.651H605.749V131H598.889ZM607.677 131V129.86L611.204 126.206C611.58 125.81 611.891 125.462 612.135 125.163C612.383 124.861 612.568 124.575 612.69 124.303C612.812 124.032 612.873 123.743 612.873 123.438C612.873 123.092 612.791 122.794 612.629 122.543C612.466 122.288 612.244 122.093 611.962 121.957C611.68 121.818 611.363 121.749 611.01 121.749C610.637 121.749 610.312 121.825 610.033 121.978C609.755 122.13 609.541 122.346 609.392 122.624C609.243 122.902 609.168 123.228 609.168 123.601H607.667C607.667 122.967 607.813 122.412 608.105 121.937C608.396 121.462 608.797 121.094 609.306 120.833C609.815 120.568 610.393 120.436 611.041 120.436C611.696 120.436 612.272 120.566 612.771 120.828C613.273 121.085 613.665 121.438 613.947 121.886C614.228 122.331 614.369 122.833 614.369 123.392C614.369 123.779 614.296 124.157 614.15 124.527C614.008 124.897 613.758 125.309 613.402 125.764C613.046 126.215 612.551 126.763 611.916 127.407L609.845 129.575V129.651H614.537V131H607.677ZM618.73 125.29C618.289 125.29 617.887 125.184 617.524 124.97C617.164 124.753 616.876 124.463 616.659 124.1C616.445 123.737 616.338 123.335 616.338 122.894C616.338 122.453 616.445 122.052 616.659 121.693C616.876 121.33 617.164 121.041 617.524 120.828C617.887 120.611 618.289 120.502 618.73 120.502C619.171 120.502 619.573 120.611 619.936 120.828C620.299 121.041 620.587 121.33 620.801 121.693C621.018 122.052 621.127 122.453 621.127 122.894C621.127 123.335 621.018 123.737 620.801 124.1C620.587 124.463 620.299 124.753 619.936 124.97C619.573 125.184 619.171 125.29 618.73 125.29ZM618.73 124.13C618.961 124.13 619.169 124.074 619.356 123.962C619.542 123.85 619.69 123.701 619.799 123.514C619.911 123.328 619.967 123.121 619.967 122.894C619.967 122.666 619.911 122.459 619.799 122.273C619.69 122.086 619.542 121.939 619.356 121.83C619.169 121.718 618.961 121.662 618.73 121.662C618.503 121.662 618.296 121.718 618.109 121.83C617.923 121.939 617.773 122.086 617.661 122.273C617.553 122.459 617.499 122.666 617.499 122.894C617.499 123.121 617.553 123.328 617.661 123.514C617.773 123.701 617.923 123.85 618.109 123.962C618.296 124.074 618.503 124.13 618.73 124.13Z" fill="white"/>
<g clip-path="url(#clip2_0_1)">
<path d="M600.004 185.523C599.789 185.598 599.585 185.698 599.396 185.818C598.554 185.469 597.765 184.951 597.082 184.263C594.306 181.496 594.306 176.999 597.082 174.233C597.366 173.949 597.664 173.694 597.983 173.467C598.516 173.091 599.354 173.722 599.297 174.311C599.105 176.339 599.787 178.446 601.348 180C601.944 180.598 602.621 181.067 603.343 181.407C601.447 181.72 600 183.368 600 185.353C600 185.41 600.001 185.467 600.004 185.523Z" fill="white"/>
<path d="M605.533 176.815L606.06 178.562C606.008 178.603 605.957 178.646 605.907 178.69L604.371 177.648L602.594 178.853L603.209 176.815L601.5 175.523L603.655 175.463L604.371 173.465L605.087 175.463L607.242 175.523L605.533 176.815Z" fill="white"/>
<path d="M611.608 175.629L612.716 174.797L611.324 174.763L610.858 173.465L610.392 174.763L609 174.797L610.108 175.629L609.709 176.948L610.858 176.169L612.006 176.948L611.608 175.629Z" fill="white"/>
<path d="M614.009 192.353H615C617.209 192.353 619 190.563 619 188.353C619 186.477 617.708 184.903 615.966 184.471C615.988 184.268 616 184.062 616 183.853C616 180.816 613.538 178.353 610.5 178.353C607.981 178.353 605.857 180.047 605.206 182.359C605.137 182.355 605.069 182.353 605 182.353C602.791 182.353 601 184.144 601 186.353C601 186.41 601.001 186.467 601.004 186.523C599.836 186.934 599 188.046 599 189.353C599 191.01 600.343 192.353 602 192.353H606.848L611.132 184.857C611.641 183.967 613 184.328 613 185.353V189.353H614C614.768 189.353 615.249 190.183 614.868 190.85L614.009 192.353Z" fill="white"/>
<path d="M608 192.353L612 185.353V190.353H614L610 197.353V192.353H608Z" fill="white"/>
<path d="M606.552 197.353H605.448L605.559 196.131L604.552 196.84L604 195.867L605.103 195.353L604 194.84L604.552 193.867L605.559 194.576L605.448 193.353H606.552L606.441 194.576L607.448 193.867L608 194.84L606.897 195.353L608 195.867L607.448 196.84L606.441 196.131L606.552 197.353Z" fill="white"/>
</g>
<path d="M596.1 201.045V207H595.379V201.801H595.344L593.89 202.766V202.033L595.379 201.045H596.1ZM599.674 207.081C599.333 207.081 599.026 207.014 598.752 206.878C598.479 206.742 598.26 206.556 598.095 206.32C597.93 206.083 597.84 205.814 597.825 205.511H598.523C598.55 205.781 598.672 206.004 598.889 206.18C599.108 206.354 599.37 206.442 599.674 206.442C599.918 206.442 600.135 206.385 600.325 206.27C600.517 206.156 600.668 205.999 600.776 205.799C600.887 205.597 600.942 205.37 600.942 205.116C600.942 204.856 600.885 204.624 600.77 204.421C600.658 204.215 600.503 204.053 600.305 203.935C600.107 203.817 599.881 203.757 599.627 203.755C599.445 203.753 599.258 203.781 599.066 203.839C598.874 203.895 598.716 203.968 598.592 204.057L597.918 203.976L598.278 201.045H601.372V201.684H598.883L598.674 203.441H598.709C598.831 203.344 598.984 203.263 599.168 203.199C599.352 203.135 599.544 203.103 599.744 203.103C600.108 203.103 600.433 203.191 600.718 203.365C601.005 203.538 601.23 203.774 601.393 204.075C601.557 204.375 601.64 204.718 601.64 205.104C601.64 205.484 601.554 205.823 601.384 206.122C601.215 206.418 600.983 206.653 600.686 206.826C600.389 206.996 600.052 207.081 599.674 207.081ZM603.446 205.372L603.435 204.523H603.574L605.528 202.534H606.377L604.295 204.639H604.237L603.446 205.372ZM602.806 207V201.045H603.493V207H602.806ZM605.645 207L603.9 204.79L604.388 204.313L606.517 207H605.645ZM607.261 207V202.534H607.924V203.231H607.982C608.075 202.993 608.225 202.808 608.432 202.676C608.64 202.542 608.889 202.475 609.18 202.475C609.474 202.475 609.72 202.542 609.915 202.676C610.113 202.808 610.267 202.993 610.378 203.231H610.424C610.539 203.001 610.71 202.818 610.939 202.682C611.168 202.544 611.442 202.475 611.762 202.475C612.161 202.475 612.488 202.6 612.742 202.851C612.996 203.099 613.123 203.485 613.123 204.011V207H612.437V204.011C612.437 203.681 612.346 203.446 612.166 203.304C611.986 203.163 611.774 203.092 611.529 203.092C611.215 203.092 610.972 203.187 610.799 203.377C610.627 203.565 610.541 203.803 610.541 204.092V207H609.843V203.941C609.843 203.687 609.76 203.482 609.596 203.327C609.431 203.17 609.219 203.092 608.959 203.092C608.78 203.092 608.614 203.139 608.459 203.234C608.305 203.329 608.181 203.461 608.086 203.63C607.993 203.797 607.947 203.989 607.947 204.208V207H607.261ZM616.483 200.766L614.564 207.896H613.936L615.855 200.766H616.483ZM617.983 204.313V207H617.296V201.045H617.983V203.231H618.041C618.145 203.001 618.302 202.818 618.512 202.682C618.723 202.544 619.004 202.475 619.355 202.475C619.659 202.475 619.926 202.536 620.155 202.659C620.383 202.779 620.561 202.964 620.687 203.214C620.815 203.462 620.879 203.778 620.879 204.162V207H620.192V204.208C620.192 203.854 620.1 203.579 619.916 203.386C619.734 203.19 619.481 203.092 619.157 203.092C618.932 203.092 618.731 203.139 618.552 203.234C618.376 203.329 618.236 203.468 618.134 203.65C618.033 203.832 617.983 204.053 617.983 204.313Z" fill="white"/>
<path d="M601.241 218.341C600.997 218.337 600.753 218.29 600.508 218.201C600.264 218.112 600.041 217.962 599.84 217.75C599.638 217.537 599.476 217.249 599.354 216.887C599.232 216.522 599.171 216.065 599.171 215.514C599.171 214.987 599.22 214.52 599.319 214.113C599.418 213.704 599.561 213.359 599.749 213.08C599.938 212.799 600.164 212.586 600.43 212.441C600.697 212.295 600.999 212.222 601.334 212.222C601.668 212.222 601.964 212.289 602.224 212.423C602.486 212.555 602.699 212.739 602.864 212.976C603.029 213.212 603.135 213.484 603.184 213.793H602.474C602.408 213.525 602.28 213.303 602.09 213.127C601.9 212.95 601.648 212.862 601.334 212.862C600.873 212.862 600.509 213.063 600.244 213.464C599.98 213.865 599.847 214.429 599.845 215.154H599.892C600.001 214.989 600.129 214.848 600.279 214.732C600.43 214.614 600.597 214.523 600.779 214.459C600.961 214.395 601.154 214.363 601.358 214.363C601.699 214.363 602.011 214.448 602.294 214.619C602.577 214.787 602.804 215.021 602.974 215.319C603.145 215.616 603.23 215.956 603.23 216.34C603.23 216.708 603.148 217.046 602.983 217.352C602.818 217.656 602.587 217.899 602.288 218.079C601.991 218.257 601.643 218.344 601.241 218.341ZM601.241 217.701C601.485 217.701 601.705 217.64 601.898 217.518C602.094 217.396 602.248 217.232 602.361 217.026C602.475 216.821 602.532 216.592 602.532 216.34C602.532 216.094 602.477 215.87 602.367 215.668C602.258 215.465 602.108 215.303 601.916 215.183C601.726 215.062 601.509 215.002 601.264 215.002C601.08 215.002 600.909 215.039 600.75 215.113C600.591 215.185 600.451 215.283 600.331 215.409C600.213 215.535 600.12 215.68 600.052 215.843C599.984 216.004 599.95 216.173 599.95 216.352C599.95 216.588 600.005 216.809 600.116 217.015C600.228 217.22 600.381 217.386 600.575 217.512C600.771 217.638 600.993 217.701 601.241 217.701ZM604.885 217.497C604.742 217.497 604.619 217.446 604.516 217.343C604.413 217.24 604.362 217.117 604.362 216.974C604.362 216.83 604.413 216.707 604.516 216.605C604.619 216.502 604.742 216.45 604.885 216.45C605.029 216.45 605.152 216.502 605.255 216.605C605.358 216.707 605.409 216.83 605.409 216.974C605.409 217.069 605.385 217.156 605.336 217.236C605.29 217.315 605.227 217.379 605.147 217.428C605.07 217.474 604.982 217.497 604.885 217.497ZM604.885 214.485C604.742 214.485 604.619 214.433 604.516 214.331C604.413 214.228 604.362 214.105 604.362 213.961C604.362 213.818 604.413 213.695 604.516 213.592C604.619 213.489 604.742 213.438 604.885 213.438C605.029 213.438 605.152 213.489 605.255 213.592C605.358 213.695 605.409 213.818 605.409 213.961C605.409 214.056 605.385 214.144 605.336 214.223C605.29 214.303 605.227 214.367 605.147 214.415C605.07 214.462 604.982 214.485 604.885 214.485ZM608.571 218.341C608.133 218.341 607.76 218.221 607.452 217.983C607.143 217.743 606.908 217.395 606.745 216.939C606.582 216.481 606.501 215.929 606.501 215.282C606.501 214.638 606.582 214.088 606.745 213.633C606.91 213.175 607.146 212.826 607.455 212.586C607.765 212.344 608.137 212.222 608.571 212.222C609.005 212.222 609.377 212.344 609.685 212.586C609.995 212.826 610.232 213.175 610.394 213.633C610.559 214.088 610.642 214.638 610.642 215.282C610.642 215.929 610.56 216.481 610.397 216.939C610.234 217.395 609.999 217.743 609.691 217.983C609.382 218.221 609.009 218.341 608.571 218.341ZM608.571 217.701C609.005 217.701 609.343 217.491 609.583 217.073C609.823 216.654 609.944 216.057 609.944 215.282C609.944 214.766 609.888 214.327 609.778 213.964C609.669 213.602 609.512 213.326 609.307 213.136C609.103 212.946 608.858 212.851 608.571 212.851C608.141 212.851 607.804 213.063 607.562 213.487C607.32 213.91 607.199 214.508 607.199 215.282C607.199 215.797 607.253 216.235 607.361 216.596C607.47 216.956 607.626 217.231 607.83 217.419C608.035 217.607 608.282 217.701 608.571 217.701ZM613.689 218.341C613.251 218.341 612.878 218.221 612.569 217.983C612.261 217.743 612.026 217.395 611.863 216.939C611.7 216.481 611.619 215.929 611.619 215.282C611.619 214.638 611.7 214.088 611.863 213.633C612.028 213.175 612.264 212.826 612.572 212.586C612.883 212.344 613.255 212.222 613.689 212.222C614.123 212.222 614.494 212.344 614.803 212.586C615.113 212.826 615.349 213.175 615.512 213.633C615.677 214.088 615.759 214.638 615.759 215.282C615.759 215.929 615.678 216.481 615.515 216.939C615.352 217.395 615.117 217.743 614.808 217.983C614.5 218.221 614.127 218.341 613.689 218.341ZM613.689 217.701C614.123 217.701 614.461 217.491 614.701 217.073C614.941 216.654 615.061 216.057 615.061 215.282C615.061 214.766 615.006 214.327 614.896 213.964C614.787 213.602 614.63 213.326 614.425 213.136C614.221 212.946 613.976 212.851 613.689 212.851C613.259 212.851 612.922 213.063 612.68 213.487C612.438 213.91 612.316 214.508 612.316 215.282C612.316 215.797 612.371 216.235 612.479 216.596C612.588 216.956 612.744 217.231 612.947 217.419C613.153 217.607 613.4 217.701 613.689 217.701Z" fill="white"/>
<g clip-path="url(#clip3_0_1)">
<path d="M39.9224 142.448C39.7026 142.526 39.4943 142.627 39.3007 142.75C38.4388 142.393 37.6315 141.863 36.9318 141.158C34.0907 138.327 34.0907 133.724 36.9318 130.892C37.2225 130.602 37.5277 130.34 37.8546 130.108C38.3996 129.723 39.257 130.369 39.1989 130.972C39.0027 133.049 39.7003 135.205 41.2989 136.795C41.909 137.407 42.6014 137.887 43.3408 138.236C41.3994 138.556 39.9188 140.243 39.9188 142.275C39.9188 142.333 39.92 142.391 39.9224 142.448Z" fill="white"/>
<path d="M45.5824 133.535L46.1216 135.323C46.0684 135.366 46.016 135.409 45.9644 135.454L44.393 134.388L42.5743 135.622L43.2036 133.535L41.4541 132.213L43.66 132.151L44.393 130.106L45.126 132.151L47.3319 132.213L45.5824 133.535Z" fill="white"/>
<path d="M51.8 132.322L52.9341 131.47L51.5096 131.435L51.0324 130.106L50.5553 131.435L49.1308 131.47L50.2649 132.322L49.8569 133.672L51.0324 132.874L52.208 133.672L51.8 132.322Z" fill="white"/>
<path d="M41.9659 149.44H55.2722C57.5334 149.44 59.3664 147.607 59.3664 145.346C59.3664 143.425 58.0443 141.814 56.2607 141.371C56.2838 141.164 56.2957 140.953 56.2957 140.74C56.2957 137.63 53.7753 135.11 50.6661 135.11C48.0873 135.11 45.9135 136.844 45.247 139.209C45.1773 139.206 45.1071 139.204 45.0366 139.204C42.7754 139.204 40.9423 141.037 40.9423 143.298C40.9423 143.357 40.9435 143.414 40.9459 143.472C39.7514 143.892 38.8952 145.031 38.8952 146.369C38.8952 148.065 40.27 149.44 41.9659 149.44Z" fill="white"/>
</g>
<path d="M151.231 144.472L148.641 146.457L149.572 149.589L146.881 147.737L144.189 149.589L145.12 146.457L142.53 144.472L145.796 144.38L146.881 141.309L147.965 144.38L151.231 144.472ZM154.813 151.544L153.134 152.824L153.738 154.851L151.998 153.653L150.258 154.851L150.862 152.824L149.184 151.544L151.292 151.493L151.998 149.497L152.705 151.493L154.813 151.544ZM152.479 156.611C153.329 156.529 154.24 157.737 153.697 158.505C153.37 158.965 153.022 159.395 152.592 159.805C148.59 163.827 142.111 163.827 138.119 159.805C134.117 155.813 134.117 149.323 138.119 145.331C138.528 144.922 138.958 144.554 139.419 144.226C140.186 143.684 141.394 144.595 141.312 145.444C141.036 148.371 142.019 151.411 144.27 153.653C146.512 155.905 149.542 156.887 152.479 156.611Z" fill="white"/>
<path d="M765.69 115.578V126H764.112V117.156H764.051L761.558 118.784V117.278L764.158 115.578H765.69ZM772.147 126.142C771.682 126.136 771.224 126.051 770.773 125.888C770.325 125.725 769.918 125.454 769.552 125.074C769.186 124.694 768.892 124.183 768.672 123.542C768.455 122.901 768.346 122.1 768.346 121.14C768.346 120.231 768.436 119.424 768.616 118.718C768.799 118.012 769.062 117.417 769.404 116.932C769.747 116.443 770.161 116.072 770.646 115.817C771.131 115.563 771.676 115.436 772.28 115.436C772.9 115.436 773.452 115.558 773.933 115.802C774.415 116.046 774.805 116.384 775.104 116.815C775.406 117.246 775.597 117.736 775.679 118.285H774.127C774.022 117.851 773.813 117.497 773.501 117.222C773.189 116.947 772.782 116.81 772.28 116.81C771.516 116.81 770.921 117.142 770.493 117.807C770.069 118.472 769.856 119.397 769.852 120.581H769.929C770.108 120.285 770.329 120.034 770.59 119.827C770.855 119.617 771.15 119.456 771.476 119.344C771.805 119.229 772.151 119.171 772.514 119.171C773.117 119.171 773.664 119.319 774.152 119.614C774.644 119.905 775.036 120.309 775.328 120.825C775.619 121.34 775.765 121.931 775.765 122.596C775.765 123.261 775.614 123.863 775.312 124.402C775.014 124.942 774.593 125.369 774.05 125.684C773.508 125.997 772.873 126.149 772.147 126.142ZM772.142 124.819C772.542 124.819 772.9 124.721 773.216 124.524C773.531 124.328 773.781 124.063 773.964 123.73C774.147 123.398 774.239 123.026 774.239 122.616C774.239 122.216 774.149 121.851 773.969 121.522C773.793 121.193 773.548 120.932 773.236 120.738C772.928 120.545 772.575 120.448 772.178 120.448C771.876 120.448 771.596 120.506 771.338 120.621C771.084 120.737 770.86 120.896 770.666 121.1C770.473 121.303 770.32 121.537 770.208 121.802C770.1 122.063 770.046 122.34 770.046 122.631C770.046 123.021 770.135 123.383 770.315 123.715C770.498 124.048 770.748 124.316 771.063 124.519C771.382 124.719 771.742 124.819 772.142 124.819ZM779.883 120.29C779.442 120.29 779.04 120.184 778.677 119.97C778.318 119.753 778.029 119.463 777.812 119.1C777.599 118.737 777.492 118.335 777.492 117.894C777.492 117.453 777.599 117.052 777.812 116.693C778.029 116.33 778.318 116.041 778.677 115.828C779.04 115.611 779.442 115.502 779.883 115.502C780.324 115.502 780.726 115.611 781.089 115.828C781.452 116.041 781.741 116.33 781.954 116.693C782.172 117.052 782.28 117.453 782.28 117.894C782.28 118.335 782.172 118.737 781.954 119.1C781.741 119.463 781.452 119.753 781.089 119.97C780.726 120.184 780.324 120.29 779.883 120.29ZM779.883 119.13C780.114 119.13 780.323 119.074 780.509 118.962C780.696 118.85 780.843 118.701 780.952 118.514C781.064 118.328 781.12 118.121 781.12 117.894C781.12 117.666 781.064 117.459 780.952 117.273C780.843 117.086 780.696 116.939 780.509 116.83C780.323 116.718 780.114 116.662 779.883 116.662C779.656 116.662 779.449 116.718 779.263 116.83C779.076 116.939 778.927 117.086 778.815 117.273C778.706 117.459 778.652 117.666 778.652 117.894C778.652 118.121 778.706 118.328 778.815 118.514C778.927 118.701 779.076 118.85 779.263 118.962C779.449 119.074 779.656 119.13 779.883 119.13Z" fill="white"/>
<path d="M770.528 182.683H773.589C775.851 182.683 777.684 180.85 777.684 178.589C777.684 176.669 776.361 175.057 774.578 174.615C774.601 174.407 774.613 174.197 774.613 173.983C774.613 170.874 772.092 168.353 768.983 168.353C766.405 168.353 764.231 170.087 763.564 172.453C763.494 172.449 763.424 172.448 763.354 172.448C761.093 172.448 759.26 174.281 759.26 176.542C759.26 176.6 759.261 176.658 759.263 176.715C758.069 177.136 757.212 178.274 757.212 179.613C757.212 181.308 758.587 182.683 760.283 182.683H763.198L767.583 175.01C768.104 174.099 769.495 174.469 769.495 175.518V179.613H770.519C771.305 179.613 771.797 180.462 771.407 181.144L770.528 182.683Z" fill="white"/>
<path d="M764.377 182.683L768.472 175.518V180.636H770.519L766.424 187.801V182.683H764.377Z" fill="white"/>
<path d="M756.1 191.045V197H755.379V191.801H755.344L753.89 192.766V192.033L755.379 191.045H756.1ZM759.674 197.081C759.333 197.081 759.026 197.014 758.752 196.878C758.479 196.742 758.26 196.556 758.095 196.32C757.93 196.083 757.84 195.814 757.825 195.511H758.523C758.55 195.781 758.672 196.004 758.889 196.18C759.108 196.354 759.37 196.442 759.674 196.442C759.918 196.442 760.135 196.385 760.325 196.27C760.517 196.156 760.668 195.999 760.776 195.799C760.887 195.597 760.942 195.37 760.942 195.116C760.942 194.856 760.885 194.624 760.77 194.421C760.658 194.215 760.503 194.053 760.305 193.935C760.107 193.817 759.881 193.757 759.627 193.755C759.445 193.753 759.258 193.781 759.066 193.839C758.874 193.895 758.716 193.968 758.592 194.057L757.918 193.976L758.278 191.045H761.372V191.684H758.883L758.674 193.441H758.709C758.831 193.344 758.984 193.263 759.168 193.199C759.352 193.135 759.544 193.103 759.744 193.103C760.108 193.103 760.433 193.191 760.718 193.365C761.005 193.538 761.23 193.774 761.393 194.075C761.557 194.375 761.64 194.718 761.64 195.104C761.64 195.484 761.554 195.823 761.384 196.122C761.215 196.418 760.983 196.653 760.686 196.826C760.389 196.996 760.052 197.081 759.674 197.081ZM763.446 195.372L763.435 194.523H763.574L765.528 192.534H766.377L764.295 194.639H764.237L763.446 195.372ZM762.806 197V191.045H763.493V197H762.806ZM765.645 197L763.9 194.79L764.388 194.313L766.517 197H765.645ZM767.261 197V192.534H767.924V193.231H767.982C768.075 192.993 768.225 192.808 768.432 192.676C768.64 192.542 768.889 192.475 769.18 192.475C769.474 192.475 769.72 192.542 769.915 192.676C770.113 192.808 770.267 192.993 770.378 193.231H770.424C770.539 193.001 770.71 192.818 770.939 192.682C771.168 192.544 771.442 192.475 771.762 192.475C772.161 192.475 772.488 192.6 772.742 192.851C772.996 193.099 773.123 193.485 773.123 194.011V197H772.437V194.011C772.437 193.681 772.346 193.446 772.166 193.304C771.986 193.163 771.774 193.092 771.529 193.092C771.215 193.092 770.972 193.187 770.799 193.377C770.627 193.565 770.541 193.803 770.541 194.092V197H769.843V193.941C769.843 193.687 769.76 193.482 769.596 193.327C769.431 193.17 769.219 193.092 768.959 193.092C768.78 193.092 768.614 193.139 768.459 193.234C768.305 193.329 768.181 193.461 768.086 193.63C767.993 193.797 767.947 193.989 767.947 194.208V197H767.261ZM776.483 190.766L774.564 197.896H773.936L775.855 190.766H776.483ZM777.983 194.313V197H777.296V191.045H777.983V193.231H778.041C778.145 193.001 778.302 192.818 778.512 192.682C778.723 192.544 779.004 192.475 779.355 192.475C779.659 192.475 779.926 192.536 780.155 192.659C780.383 192.779 780.561 192.964 780.687 193.214C780.815 193.462 780.879 193.778 780.879 194.162V197H780.192V194.208C780.192 193.854 780.1 193.579 779.916 193.386C779.734 193.19 779.481 193.092 779.157 193.092C778.932 193.092 778.731 193.139 778.552 193.234C778.376 193.329 778.236 193.468 778.134 193.65C778.033 193.832 777.983 194.053 777.983 194.313Z" fill="white"/>
<path d="M761.203 208.341C760.804 208.341 760.451 208.27 760.145 208.128C759.841 207.985 759.603 207.788 759.433 207.538C759.262 207.286 759.178 206.999 759.18 206.677C759.178 206.425 759.227 206.193 759.328 205.979C759.429 205.764 759.566 205.585 759.741 205.441C759.917 205.296 760.114 205.204 760.331 205.165V205.13C760.046 205.057 759.819 204.897 759.651 204.651C759.482 204.402 759.399 204.12 759.401 203.804C759.399 203.502 759.475 203.231 759.63 202.993C759.785 202.755 759.999 202.567 760.27 202.429C760.543 202.291 760.854 202.222 761.203 202.222C761.548 202.222 761.857 202.291 762.128 202.429C762.4 202.567 762.613 202.755 762.768 202.993C762.925 203.231 763.004 203.502 763.006 203.804C763.004 204.12 762.918 204.402 762.747 204.651C762.579 204.897 762.355 205.057 762.076 205.13V205.165C762.291 205.204 762.485 205.296 762.657 205.441C762.83 205.585 762.968 205.764 763.07 205.979C763.173 206.193 763.225 206.425 763.227 206.677C763.225 206.999 763.138 207.286 762.966 207.538C762.795 207.788 762.558 207.985 762.253 208.128C761.951 208.27 761.601 208.341 761.203 208.341ZM761.203 207.701C761.473 207.701 761.706 207.657 761.901 207.57C762.097 207.483 762.248 207.36 762.355 207.201C762.462 207.042 762.516 206.856 762.518 206.642C762.516 206.418 762.458 206.219 762.343 206.046C762.229 205.874 762.073 205.738 761.875 205.639C761.679 205.54 761.455 205.491 761.203 205.491C760.949 205.491 760.723 205.54 760.523 205.639C760.325 205.738 760.169 205.874 760.055 206.046C759.942 206.219 759.887 206.418 759.889 206.642C759.887 206.856 759.939 207.042 760.043 207.201C760.15 207.36 760.302 207.483 760.5 207.57C760.697 207.657 760.932 207.701 761.203 207.701ZM761.203 204.874C761.417 204.874 761.606 204.832 761.77 204.746C761.937 204.661 762.068 204.542 762.163 204.389C762.258 204.236 762.306 204.056 762.308 203.851C762.306 203.649 762.259 203.474 762.166 203.325C762.073 203.173 761.944 203.057 761.779 202.976C761.614 202.892 761.422 202.851 761.203 202.851C760.98 202.851 760.786 202.892 760.619 202.976C760.452 203.057 760.323 203.173 760.232 203.325C760.141 203.474 760.096 203.649 760.098 203.851C760.096 204.056 760.142 204.236 760.235 204.389C760.33 204.542 760.461 204.661 760.628 204.746C760.794 204.832 760.986 204.874 761.203 204.874ZM764.853 207.497C764.71 207.497 764.587 207.446 764.484 207.343C764.381 207.24 764.33 207.117 764.33 206.974C764.33 206.83 764.381 206.707 764.484 206.605C764.587 206.502 764.71 206.45 764.853 206.45C764.997 206.45 765.12 206.502 765.223 206.605C765.326 206.707 765.377 206.83 765.377 206.974C765.377 207.069 765.353 207.156 765.304 207.236C765.258 207.315 765.195 207.379 765.115 207.428C765.038 207.474 764.95 207.497 764.853 207.497ZM764.853 204.485C764.71 204.485 764.587 204.433 764.484 204.331C764.381 204.228 764.33 204.105 764.33 203.961C764.33 203.818 764.381 203.695 764.484 203.592C764.587 203.489 764.71 203.438 764.853 203.438C764.997 203.438 765.12 203.489 765.223 203.592C765.326 203.695 765.377 203.818 765.377 203.961C765.377 204.056 765.353 204.144 765.304 204.223C765.258 204.303 765.195 204.367 765.115 204.415C765.038 204.462 764.95 204.485 764.853 204.485ZM768.539 208.341C768.101 208.341 767.728 208.221 767.42 207.983C767.111 207.743 766.876 207.395 766.713 206.939C766.55 206.481 766.469 205.929 766.469 205.282C766.469 204.638 766.55 204.088 766.713 203.633C766.878 203.175 767.114 202.826 767.423 202.586C767.733 202.344 768.105 202.222 768.539 202.222C768.973 202.222 769.345 202.344 769.653 202.586C769.963 202.826 770.2 203.175 770.362 203.633C770.527 204.088 770.61 204.638 770.61 205.282C770.61 205.929 770.528 206.481 770.365 206.939C770.202 207.395 769.967 207.743 769.659 207.983C769.35 208.221 768.977 208.341 768.539 208.341ZM768.539 207.701C768.973 207.701 769.311 207.491 769.551 207.073C769.791 206.654 769.912 206.057 769.912 205.282C769.912 204.766 769.856 204.327 769.746 203.964C769.637 203.602 769.48 203.326 769.275 203.136C769.071 202.946 768.826 202.851 768.539 202.851C768.109 202.851 767.772 203.063 767.53 203.487C767.288 203.91 767.167 204.508 767.167 205.282C767.167 205.797 767.221 206.235 767.33 206.596C767.438 206.956 767.594 207.231 767.798 207.419C768.003 207.607 768.25 207.701 768.539 207.701ZM773.657 208.341C773.219 208.341 772.846 208.221 772.537 207.983C772.229 207.743 771.994 207.395 771.831 206.939C771.668 206.481 771.587 205.929 771.587 205.282C771.587 204.638 771.668 204.088 771.831 203.633C771.996 203.175 772.232 202.826 772.54 202.586C772.851 202.344 773.223 202.222 773.657 202.222C774.091 202.222 774.462 202.344 774.771 202.586C775.081 202.826 775.317 203.175 775.48 203.633C775.645 204.088 775.727 204.638 775.727 205.282C775.727 205.929 775.646 206.481 775.483 206.939C775.32 207.395 775.085 207.743 774.776 207.983C774.468 208.221 774.095 208.341 773.657 208.341ZM773.657 207.701C774.091 207.701 774.429 207.491 774.669 207.073C774.909 206.654 775.029 206.057 775.029 205.282C775.029 204.766 774.974 204.327 774.864 203.964C774.755 203.602 774.598 203.326 774.393 203.136C774.189 202.946 773.944 202.851 773.657 202.851C773.227 202.851 772.89 203.063 772.648 203.487C772.406 203.91 772.284 204.508 772.284 205.282C772.284 205.797 772.339 206.235 772.447 206.596C772.556 206.956 772.712 207.231 772.915 207.419C773.121 207.607 773.368 207.701 773.657 207.701Z" fill="white"/>
</g>
<defs>
<clipPath id="clip0_0_1">
<rect width="884" height="262" fill="white"/>
</clipPath>
<clipPath id="clip1_0_1">
<rect width="24.5654" height="24.5654" fill="white" transform="translate(232.348 159.733)"/>
</clipPath>
<clipPath id="clip2_0_1">
<rect width="24" height="24" fill="white" transform="translate(595 173.353)"/>
</clipPath>
<clipPath id="clip3_0_1">
<rect width="24.5654" height="24.5654" fill="white" transform="translate(34.801 127.945)"/>
</clipPath>
</defs>
</svg>
