<svg width="32" height="31" viewBox="0 0 32 31" fill="none" xmlns="http://www.w3.org/2000/svg">
<g clip-path="url(#clip0_1_3265)">
<path d="M5.09343 5.66122L4.75752 5.33491C4.42162 5.00861 3.879 5.01697 3.55171 5.33491L3.5431 5.34328C3.20719 5.66959 3.20719 6.1967 3.5431 6.51464L3.879 6.84095C4.21491 7.16725 4.74891 7.16725 5.08481 6.84095L5.09343 6.83258C5.42933 6.51464 5.42933 5.97916 5.09343 5.66122Z" fill="white"/>
<path d="M2.4751 10.9825H1.59658C1.12287 10.9825 0.743896 11.3507 0.743896 11.8109V11.8192C0.743896 12.2794 1.12287 12.6475 1.59658 12.6475H2.46648C2.94881 12.6559 3.32778 12.2878 3.32778 11.8276V11.8192C3.32778 11.3507 2.94881 10.9825 2.4751 10.9825Z" fill="white"/>
<path d="M10.2267 2.65752H10.2181C9.73579 2.65752 9.35683 3.02566 9.35683 3.48584V4.28906C9.35683 4.74923 9.73579 5.11737 10.2095 5.11737H10.2181C10.7004 5.12574 11.0794 4.7576 11.0794 4.29742V3.48584C11.0794 3.02566 10.7004 2.65752 10.2267 2.65752Z" fill="white"/>
<path d="M16.8931 5.34328C16.5572 5.01697 16.0146 5.01697 15.6787 5.33491L15.3428 5.66122C15.0069 5.98753 15.0069 6.51464 15.3428 6.83258L15.3514 6.84095C15.6873 7.16725 16.2299 7.16725 16.5572 6.84095L16.8931 6.51464C17.229 6.18833 17.229 5.66959 16.8931 5.34328Z" fill="white"/>
<path d="M10.2181 6.79911C7.36724 6.79911 5.05036 9.04979 5.05036 11.8192C5.05036 13.6144 6.02383 15.1916 7.4852 16.0791C8.18447 14.1112 10.108 12.6977 12.3713 12.6977C12.4604 12.6977 12.549 12.6999 12.6369 12.7043C13.01 11.418 13.7573 10.284 14.7573 9.42019C13.8802 7.8595 12.175 6.79911 10.2181 6.79911Z" fill="white"/>
<path d="M3.5431 18.2952C3.879 18.6215 4.42162 18.6215 4.75752 18.2952L5.09343 17.9689C5.42933 17.6425 5.42072 17.1154 5.09343 16.7975L5.08481 16.7891C4.74891 16.4628 4.20629 16.4628 3.87039 16.7891L3.53449 17.1154C3.20719 17.4501 3.20719 17.9689 3.5431 18.2952Z" fill="white"/>
<path d="M9.78747 26.503H26.5827C29.4368 26.503 31.7504 24.2555 31.7504 21.4829C31.7504 19.1283 30.0817 17.1523 27.8304 16.6101C27.8596 16.3558 27.8746 16.0972 27.8746 15.8353C27.8746 12.0231 24.6933 8.93266 20.769 8.93266C17.514 8.93266 14.7702 11.0587 13.9289 13.9593C13.8409 13.955 13.7524 13.9528 13.6633 13.9528C10.8092 13.9528 8.49553 16.2003 8.49553 18.9729C8.49553 19.0441 8.49706 19.115 8.50009 19.1856C6.99235 19.7012 5.91165 21.097 5.91165 22.7379C5.91165 24.8173 7.64692 26.503 9.78747 26.503Z" fill="white"/>
</g>
<defs>
<clipPath id="clip0_1_3265">
<rect width="31.0065" height="30.1206" fill="white" transform="translate(0.743896 0.147469)"/>
</clipPath>
</defs>
</svg>
